<?xml version="1.0" encoding="UTF-8"?>
<svg version="1.1" xmlns="http://www.w3.org/2000/svg" width="128" height="128">
<path d="M0 0 C42.24 0 84.48 0 128 0 C128 42.24 128 84.48 128 128 C85.76 128 43.52 128 0 128 C0 85.76 0 43.52 0 0 Z " fill="#555550" transform="translate(0,0)"/>
<path d="M0 0 C4.95 0 9.9 0 15 0 C15 42.24 15 84.48 15 128 C-12.72 128 -40.44 128 -69 128 C-68.01 127.01 -67.02 126.02 -66 125 C-65.7215625 124.24203125 -65.443125 123.4840625 -65.15625 122.703125 C-63.61279205 119.0947706 -61.16448635 116.55907088 -58.5 113.75 C-58.00113281 113.20859375 -57.50226562 112.6671875 -56.98828125 112.109375 C-53.29281323 108.14640662 -53.29281323 108.14640662 -51 107 C-50.57548265 104.17283235 -50.24944369 101.4056961 -50 98.5625 C-49.26880036 90.26880036 -49.26880036 90.26880036 -47 88 C-44.6171875 87.5859375 -44.6171875 87.5859375 -41.875 87.375 C-40.50988281 87.26285156 -40.50988281 87.26285156 -39.1171875 87.1484375 C-38.41851562 87.09945312 -37.71984375 87.05046875 -37 87 C-36.34 85.35 -35.68 83.7 -35 82 C-34.34 82 -33.68 82 -33 82 C-32.773125 80.9275 -32.54625 79.855 -32.3125 78.75 C-30.65538374 74.0153821 -28.40249925 72.20124963 -24 70 C-22.01811531 66.10039236 -21.637546 62.51950907 -21.375 58.1875 C-21.30023438 57.02605469 -21.22546875 55.86460938 -21.1484375 54.66796875 C-21.09945312 53.78753906 -21.05046875 52.90710937 -21 52 C-20.10796875 52.13019531 -19.2159375 52.26039062 -18.296875 52.39453125 C-17.12640625 52.53246094 -15.9559375 52.67039063 -14.75 52.8125 C-13.58984375 52.96332031 -12.4296875 53.11414062 -11.234375 53.26953125 C-7.81812771 53.35009115 -7.81812771 53.35009115 -5.7421875 50.57421875 C-5.16726562 49.72472656 -4.59234375 48.87523437 -4 48 C-3.13375 47.67 -2.2675 47.34 -1.375 47 C1.24926618 46.21958582 1.24926618 46.21958582 2.0625 43.5 C2.5265625 42.2625 2.5265625 42.2625 3 41 C4.32520503 40.31731862 5.65812182 39.6492959 7 39 C7.80528889 36.94999129 7.80528889 36.94999129 8 35 C8.66 35 9.32 35 10 35 C10 33.68 10 32.36 10 31 C8.515 30.505 8.515 30.505 7 30 C7.144375 29.484375 7.28875 28.96875 7.4375 28.4375 C9.15010825 22.20442742 9.15010825 22.20442742 7.5 16.25 C7.005 15.5075 6.51 14.765 6 14 C6.33 13.01 6.66 12.02 7 11 C6.01 10.67 5.02 10.34 4 10 C2.5625 8.6875 2.5625 8.6875 1 7 C-0.0828125 5.9171875 -0.0828125 5.9171875 -1.1875 4.8125 C-1.785625 4.214375 -2.38375 3.61625 -3 3 C-2.01 2.01 -1.02 1.02 0 0 Z " fill="#68675E" transform="translate(113,0)"/>
<path d="M0 0 C2.375 -0.125 2.375 -0.125 5 0 C7 2 7 2 7 4.125 C5.52386171 8.36889758 2.8100761 11.53681753 0 15 C2.97 14.34 5.94 13.68 9 13 C13 17.625 13 17.625 13 21 C13.66 21 14.32 21 15 21 C15.33 18.36 15.66 15.72 16 13 C16.495 13.99 16.495 13.99 17 15 C17.99 15.33 18.98 15.66 20 16 C20.11644156 19.08301416 20.18732432 22.16546123 20.25 25.25 C20.28351563 26.12269531 20.31703125 26.99539062 20.3515625 27.89453125 C20.45108452 34.41322339 20.45108452 34.41322339 18.078125 37.5 C17.39234375 37.995 16.7065625 38.49 16 39 C15.505 39.5775 15.01 40.155 14.5 40.75 C13 42 13 42 9 42 C9 42.66 9 43.32 9 44 C6 43 6 43 4.625 40.3125 C4.08875 39.219375 3.5525 38.12625 3 37 C2.13299398 35.89346079 1.23653215 34.80938334 0.3125 33.75 C-2 31 -2 31 -2 29 C-3.98 28.34 -5.96 27.68 -8 27 C-8 27.66 -8 28.32 -8 29 C-6.515 29.495 -6.515 29.495 -5 30 C-5 30.66 -5 31.32 -5 32 C-3.02 32.495 -3.02 32.495 -1 33 C-0.505 34.98 -0.505 34.98 0 37 C-3.87684087 38.19287411 -6.91621923 39 -11 39 C-11.08886184 42.19902639 -10.91058531 44.92677456 -10 48 C-10.66 47.67 -11.32 47.34 -12 47 C-11.690625 47.9075 -11.38125 48.815 -11.0625 49.75 C-10.2727737 52.16563338 -9.57050703 54.52780285 -9 57 C-9.33 56.34 -9.66 55.68 -10 55 C-11.485 54.505 -11.485 54.505 -13 54 C-14.5703125 52.44140625 -14.5703125 52.44140625 -16.125 50.5625 C-16.64320312 49.94503906 -17.16140625 49.32757813 -17.6953125 48.69140625 C-19 47 -19 47 -20 45 C-21.485 44.505 -21.485 44.505 -23 44 C-23 46.97 -23 49.94 -23 53 C-21.35 53 -19.7 53 -18 53 C-17.01 54.98 -17.01 54.98 -16 57 C-18.70879335 58.35439668 -21.00933268 58.06501451 -24 58 C-24 58.66 -24 59.32 -24 60 C-23.34 60 -22.68 60 -22 60 C-22.33 62.31 -22.66 64.62 -23 67 C-23.804375 67.28875 -24.60875 67.5775 -25.4375 67.875 C-28.1326468 68.73262568 -28.1326468 68.73262568 -29 71 C-30.65 71 -32.3 71 -34 71 C-34.66 72.65 -35.32 74.3 -36 76 C-36.99 75.505 -36.99 75.505 -38 75 C-38 72.03 -38 69.06 -38 66 C-39.32 66 -40.64 66 -42 66 C-42 66.66 -42 67.32 -42 68 C-41.34 68 -40.68 68 -40 68 C-40.495 69.485 -40.495 69.485 -41 71 C-40.67 71.66 -40.34 72.32 -40 73 C-40 73.99 -40 74.98 -40 76 C-40.66 76 -41.32 76 -42 76 C-42.495 77.485 -42.495 77.485 -43 79 C-43.99 79.495 -43.99 79.495 -45 80 C-45 80.66 -45 81.32 -45 82 C-45.66 82 -46.32 82 -47 82 C-46.65066406 82.45890625 -46.30132812 82.9178125 -45.94140625 83.390625 C-45.48636719 84.00421875 -45.03132813 84.6178125 -44.5625 85.25 C-44.11003906 85.85328125 -43.65757813 86.4565625 -43.19140625 87.078125 C-41.96099003 89.06292756 -41.43887332 90.71987655 -41 93 C-42.98 93 -44.96 93 -47 93 C-47 91.02 -47 89.04 -47 87 C-48.65 87 -50.3 87 -52 87 C-51.6390625 87.55429688 -51.278125 88.10859375 -50.90625 88.6796875 C-50.4421875 89.40414062 -49.978125 90.12859375 -49.5 90.875 C-49.0359375 91.59429687 -48.571875 92.31359375 -48.09375 93.0546875 C-47 95 -47 95 -47 97 C-51.75 98.125 -51.75 98.125 -54 97 C-54.33 97.99 -54.66 98.98 -55 100 C-60.08279869 98.72930033 -61.91596695 97.1441694 -65 93 C-66.06248222 92.07953273 -67.14678431 91.18373109 -68.25 90.3125 C-69.1575 89.549375 -70.065 88.78625 -71 88 C-71 87.34 -71 86.68 -71 86 C-74.22596349 85.14742393 -77.46583688 84.5239577 -80.75 83.9375 C-81.73484375 83.76089844 -82.7196875 83.58429688 -83.734375 83.40234375 C-84.48203125 83.26957031 -85.2296875 83.13679688 -86 83 C-85.67 82.01 -85.34 81.02 -85 80 C-84.34 80 -83.68 80 -83 80 C-83 79.34 -83 78.68 -83 78 C-82.34 78 -81.68 78 -81 78 C-81 77.34 -81 76.68 -81 76 C-79.28515625 74.30859375 -79.28515625 74.30859375 -77.0625 72.4375 C-75.96615234 71.50744141 -75.96615234 71.50744141 -74.84765625 70.55859375 C-74.23792969 70.04425781 -73.62820312 69.52992187 -73 69 C-72.505 68.505 -72.505 68.505 -72 68 C-70.40608137 67.60224617 -68.79911776 67.25604817 -67.1875 66.9375 C-65.87845703 66.67259766 -65.87845703 66.67259766 -64.54296875 66.40234375 C-62 66 -62 66 -58 66 C-58 65.34 -58 64.68 -58 64 C-57.01 64 -56.02 64 -55 64 C-55 60.37 -55 56.74 -55 53 C-45.5 48 -45.5 48 -41 48 C-40.34 45.69 -39.68 43.38 -39 41 C-37.35 41 -35.7 41 -34 41 C-34 41.66 -34 42.32 -34 43 C-31.03 42.505 -31.03 42.505 -28 42 C-28 41.34 -28 40.68 -28 40 C-30.97 39.505 -30.97 39.505 -34 39 C-33.34 38.01 -32.68 37.02 -32 36 C-29.22737745 35.61605333 -26.65676472 35.39657752 -23.875 35.3125 C-23.12089844 35.27833984 -22.36679688 35.24417969 -21.58984375 35.20898438 C-19.72708799 35.12645722 -17.86356674 35.06155289 -16 35 C-16.66 34.34 -17.32 33.68 -18 33 C-17.52269162 31.5410574 -17.04308958 30.08286504 -16.5625 28.625 C-16.29566406 27.81289063 -16.02882813 27.00078125 -15.75390625 26.1640625 C-15 24 -15 24 -14 22 C-16.31 22 -18.62 22 -21 22 C-20.505 20.515 -20.505 20.515 -20 19 C-16.7 19.33 -13.4 19.66 -10 20 C-10 19.34 -10 18.68 -10 18 C-10.66 18 -11.32 18 -12 18 C-11.44271087 14.65626525 -10.64826111 11.96687001 -9 9 C-8.34 9 -7.68 9 -7 9 C-6.505 9.99 -6.505 9.99 -6 11 C-5.34 11 -4.68 11 -4 11 C-4 9.02 -4 7.04 -4 5 C-3.01 5 -2.02 5 -1 5 C-0.67 3.35 -0.34 1.7 0 0 Z " fill="#947B2D" transform="translate(98,3)"/>
<path d="M0 0 C0.56847656 0.31324219 1.13695313 0.62648437 1.72265625 0.94921875 C1.72265625 1.60921875 1.72265625 2.26921875 1.72265625 2.94921875 C2.63015625 3.03171875 3.53765625 3.11421875 4.47265625 3.19921875 C8.23305905 4.06700401 9.46469392 4.85497407 11.72265625 7.94921875 C12.12029888 9.93743188 12.46040974 11.93866214 12.72265625 13.94921875 C13.71265625 14.93921875 13.71265625 14.93921875 14.72265625 15.94921875 C14.37504004 19.70347378 13.73919385 23.31872731 12.72265625 26.94921875 C13.38265625 27.27921875 14.04265625 27.60921875 14.72265625 27.94921875 C14.72265625 29.26921875 14.72265625 30.58921875 14.72265625 31.94921875 C14.06265625 31.94921875 13.40265625 31.94921875 12.72265625 31.94921875 C12.64015625 32.73296875 12.55765625 33.51671875 12.47265625 34.32421875 C12.10140625 35.62359375 12.10140625 35.62359375 11.72265625 36.94921875 C10.39797879 37.63292325 9.06401992 38.29886061 7.72265625 38.94921875 C7.43390625 39.75359375 7.14515625 40.55796875 6.84765625 41.38671875 C5.29432202 44.92486893 3.1441933 45.34319116 -0.27734375 46.94921875 C-2.13049632 48.99868274 -2.13049632 48.99868274 -3.27734375 50.94921875 C-7.62219459 50.34093963 -11.95126788 49.67840151 -16.27734375 48.94921875 C-16.22513672 50.25246094 -16.22513672 50.25246094 -16.171875 51.58203125 C-15.8908247 63.54674399 -15.8908247 63.54674399 -19.27734375 67.94921875 C-20.26734375 68.58859375 -21.25734375 69.22796875 -22.27734375 69.88671875 C-26.1571395 72.55407833 -26.76409981 74.57762515 -28.27734375 78.94921875 C-28.93734375 78.94921875 -29.59734375 78.94921875 -30.27734375 78.94921875 C-30.49390625 80.15578125 -30.49390625 80.15578125 -30.71484375 81.38671875 C-31.27734375 83.94921875 -31.27734375 83.94921875 -32.27734375 84.94921875 C-34.85632069 85.27159087 -37.43666196 85.46189179 -40.02734375 85.66796875 C-42.24399727 85.7112254 -42.24399727 85.7112254 -43.27734375 86.94921875 C-43.59087675 90.46985437 -43.90039238 93.98589615 -44.08789062 97.515625 C-44.48317594 101.9597065 -44.81007448 103.49156408 -48.125 106.73828125 C-49.16527344 107.46789062 -50.20554688 108.1975 -51.27734375 108.94921875 C-52.5640425 110.2899392 -53.81983073 111.66176086 -55.02734375 113.07421875 C-55.5996875 113.73679687 -56.17203125 114.399375 -56.76171875 115.08203125 C-58.43372984 117.08228571 -58.43372984 117.08228571 -60.27734375 119.94921875 C-60.93734375 119.94921875 -61.59734375 119.94921875 -62.27734375 119.94921875 C-62.27734375 120.60921875 -62.27734375 121.26921875 -62.27734375 121.94921875 C-65.15945677 122.90992309 -66.97584419 123.05503758 -69.96484375 123.01171875 C-70.77308594 123.00269531 -71.58132812 122.99367188 -72.4140625 122.984375 C-73.02894531 122.97277344 -73.64382812 122.96117188 -74.27734375 122.94921875 C-74.27734375 122.28921875 -74.27734375 121.62921875 -74.27734375 120.94921875 C-75.34662109 120.81580078 -75.34662109 120.81580078 -76.4375 120.6796875 C-84.01613121 118.73030093 -91.2412433 111.80198414 -96.27734375 105.94921875 C-96.27734375 104.95921875 -96.27734375 103.96921875 -96.27734375 102.94921875 C-96.93734375 102.94921875 -97.59734375 102.94921875 -98.27734375 102.94921875 C-101.35426683 97.53383413 -101.35426683 97.53383413 -100.96484375 94.57421875 C-100.73796875 94.03796875 -100.51109375 93.50171875 -100.27734375 92.94921875 C-99.61734375 94.26921875 -98.95734375 95.58921875 -98.27734375 96.94921875 C-98.05046875 96.08296875 -97.82359375 95.21671875 -97.58984375 94.32421875 C-95.9957309 90.22507143 -94.38448111 88.05635611 -91.27734375 84.94921875 C-89.95734375 84.94921875 -88.63734375 84.94921875 -87.27734375 84.94921875 C-85.71484375 87.32421875 -85.71484375 87.32421875 -84.27734375 89.94921875 C-81.51586219 92.11513246 -81.51586219 92.11513246 -78.71484375 92.26171875 C-77.91046875 92.48859375 -77.10609375 92.71546875 -76.27734375 92.94921875 C-75.15234375 95.38671875 -75.15234375 95.38671875 -74.27734375 97.94921875 C-72.79234375 98.93921875 -72.79234375 98.93921875 -71.27734375 99.94921875 C-71.27734375 100.93921875 -71.27734375 101.92921875 -71.27734375 102.94921875 C-69.79234375 102.45421875 -69.79234375 102.45421875 -68.27734375 101.94921875 C-66.21484375 102.51171875 -66.21484375 102.51171875 -64.27734375 103.94921875 C-62.58451554 107.75808222 -62.19345927 110.83188892 -62.27734375 114.94921875 C-61.72304688 114.44390625 -61.16875 113.93859375 -60.59765625 113.41796875 C-59.87320313 112.76828125 -59.14875 112.11859375 -58.40234375 111.44921875 C-57.68304688 110.79953125 -56.96375 110.14984375 -56.22265625 109.48046875 C-54.27734375 107.94921875 -54.27734375 107.94921875 -52.27734375 107.94921875 C-51.96796875 107.14484375 -51.65859375 106.34046875 -51.33984375 105.51171875 C-50.27734375 102.94921875 -50.27734375 102.94921875 -49.27734375 101.94921875 C-49.04659293 100.60174791 -48.86581312 99.2454431 -48.71484375 97.88671875 C-48.57046875 96.58734375 -48.42609375 95.28796875 -48.27734375 93.94921875 C-48.93734375 93.94921875 -49.59734375 93.94921875 -50.27734375 93.94921875 C-51.31169931 92.30365309 -52.30497888 90.63215795 -53.27734375 88.94921875 C-53.99921875 88.06234375 -54.72109375 87.17546875 -55.46484375 86.26171875 C-57.27734375 83.94921875 -57.27734375 83.94921875 -57.27734375 81.94921875 C-56.61734375 81.94921875 -55.95734375 81.94921875 -55.27734375 81.94921875 C-55.60734375 80.95921875 -55.93734375 79.96921875 -56.27734375 78.94921875 C-55.28734375 78.61921875 -54.29734375 78.28921875 -53.27734375 77.94921875 C-52.94734375 77.28921875 -52.61734375 76.62921875 -52.27734375 75.94921875 C-51.61734375 75.94921875 -50.95734375 75.94921875 -50.27734375 75.94921875 C-51.26734375 73.96921875 -52.25734375 71.98921875 -53.27734375 69.94921875 C-52.61734375 69.94921875 -51.95734375 69.94921875 -51.27734375 69.94921875 C-50.94734375 69.28921875 -50.61734375 68.62921875 -50.27734375 67.94921875 C-50.93734375 67.94921875 -51.59734375 67.94921875 -52.27734375 67.94921875 C-52.27734375 67.28921875 -52.27734375 66.62921875 -52.27734375 65.94921875 C-50.95734375 65.94921875 -49.63734375 65.94921875 -48.27734375 65.94921875 C-47.78234375 70.40421875 -47.78234375 70.40421875 -47.27734375 74.94921875 C-46.68953125 73.95921875 -46.68953125 73.95921875 -46.08984375 72.94921875 C-44.27734375 70.94921875 -44.27734375 70.94921875 -41.58984375 70.69921875 C-40.82671875 70.78171875 -40.06359375 70.86421875 -39.27734375 70.94921875 C-38.61734375 69.62921875 -37.95734375 68.30921875 -37.27734375 66.94921875 C-35.95734375 66.94921875 -34.63734375 66.94921875 -33.27734375 66.94921875 C-32.94734375 64.63921875 -32.61734375 62.32921875 -32.27734375 59.94921875 C-32.93734375 59.94921875 -33.59734375 59.94921875 -34.27734375 59.94921875 C-34.27734375 59.28921875 -34.27734375 58.62921875 -34.27734375 57.94921875 C-32.29734375 57.61921875 -30.31734375 57.28921875 -28.27734375 56.94921875 C-28.27734375 55.95921875 -28.27734375 54.96921875 -28.27734375 53.94921875 C-29.92734375 53.61921875 -31.57734375 53.28921875 -33.27734375 52.94921875 C-34.43509435 49.47596694 -34.34601027 46.58854427 -34.27734375 42.94921875 C-31.90234375 43.63671875 -31.90234375 43.63671875 -29.27734375 44.94921875 C-28.57522481 46.60126331 -27.90762962 48.26845644 -27.27734375 49.94921875 C-25.36067708 51.11588542 -25.36067708 51.11588542 -23.27734375 51.94921875 C-21.52734375 53.57421875 -21.52734375 53.57421875 -20.27734375 54.94921875 C-20.79296875 54.02109375 -21.30859375 53.09296875 -21.83984375 52.13671875 C-23.27734375 48.94921875 -23.27734375 48.94921875 -22.27734375 45.94921875 C-22.27734375 45.28921875 -22.27734375 44.62921875 -22.27734375 43.94921875 C-22.27734375 41.94921875 -22.27734375 39.94921875 -22.27734375 37.94921875 C-21.65859375 38.15546875 -21.03984375 38.36171875 -20.40234375 38.57421875 C-19.35046875 38.75984375 -19.35046875 38.75984375 -18.27734375 38.94921875 C-17.28734375 37.95921875 -17.28734375 37.95921875 -16.27734375 36.94921875 C-13.15234375 36.82421875 -13.15234375 36.82421875 -10.27734375 36.94921875 C-11.06852279 34.94938341 -11.06852279 34.94938341 -12.27734375 32.94921875 C-13.76234375 32.45421875 -13.76234375 32.45421875 -15.27734375 31.94921875 C-16.96484375 30.51171875 -16.96484375 30.51171875 -18.27734375 28.94921875 C-18.27734375 28.28921875 -18.27734375 27.62921875 -18.27734375 26.94921875 C-13.03013719 27.5322417 -10.36799727 31.70275758 -7.08984375 35.44921875 C-5.31500282 37.89727521 -4.36559994 40.15084568 -3.27734375 42.94921875 C-2.61734375 43.27921875 -1.95734375 43.60921875 -1.27734375 43.94921875 C-1.27734375 43.28921875 -1.27734375 42.62921875 -1.27734375 41.94921875 C-0.32859375 41.88734375 0.62015625 41.82546875 1.59765625 41.76171875 C2.62890625 41.49359375 3.66015625 41.22546875 4.72265625 40.94921875 C5.95555826 38.49217113 5.95555826 38.49217113 6.72265625 35.94921875 C7.71265625 35.61921875 8.70265625 35.28921875 9.72265625 34.94921875 C9.47708984 33.93794922 9.47708984 33.93794922 9.2265625 32.90625 C8.63512045 29.43553969 8.62726579 26.15599751 8.66015625 22.63671875 C8.66917969 21.38246094 8.67820312 20.12820312 8.6875 18.8359375 C8.69910156 17.88332031 8.71070312 16.93070313 8.72265625 15.94921875 C8.06265625 15.61921875 7.40265625 15.28921875 6.72265625 14.94921875 C6.06265625 16.92921875 5.40265625 18.90921875 4.72265625 20.94921875 C4.06265625 20.94921875 3.40265625 20.94921875 2.72265625 20.94921875 C0.93960101 18.31029699 -0.26793996 15.97743012 -1.27734375 12.94921875 C-2.91703125 13.72265625 -2.91703125 13.72265625 -4.58984375 14.51171875 C-8.27734375 15.94921875 -8.27734375 15.94921875 -11.27734375 14.94921875 C-10.64505859 14.16998047 -10.64505859 14.16998047 -10 13.375 C-5.84305396 8.24775567 -5.84305396 8.24775567 -4.27734375 1.94921875 C-6.25734375 1.28921875 -8.23734375 0.62921875 -10.27734375 -0.05078125 C-10.27734375 4.23921875 -10.27734375 8.52921875 -10.27734375 12.94921875 C-10.60734375 12.94921875 -10.93734375 12.94921875 -11.27734375 12.94921875 C-11.77234375 9.48421875 -11.77234375 9.48421875 -12.27734375 5.94921875 C-12.60734375 5.94921875 -12.93734375 5.94921875 -13.27734375 5.94921875 C-13.60734375 7.59921875 -13.93734375 9.24921875 -14.27734375 10.94921875 C-15.26734375 11.27921875 -16.25734375 11.60921875 -17.27734375 11.94921875 C-17.27734375 10.95921875 -17.27734375 9.96921875 -17.27734375 8.94921875 C-19.88782176 10.25445775 -19.95800798 11.30748449 -20.90234375 14.01171875 C-21.16273437 14.74519531 -21.423125 15.47867187 -21.69140625 16.234375 C-21.88476562 16.80027344 -22.078125 17.36617187 -22.27734375 17.94921875 C-21.61734375 17.94921875 -20.95734375 17.94921875 -20.27734375 17.94921875 C-20.27734375 18.60921875 -20.27734375 19.26921875 -20.27734375 19.94921875 C-21.04820313 19.93761719 -21.8190625 19.92601563 -22.61328125 19.9140625 C-23.61617188 19.90503906 -24.6190625 19.89601563 -25.65234375 19.88671875 C-27.14894531 19.86931641 -27.14894531 19.86931641 -28.67578125 19.8515625 C-31.26166828 19.76915273 -31.26166828 19.76915273 -33.27734375 20.94921875 C-33.11234375 21.60921875 -32.94734375 22.26921875 -32.77734375 22.94921875 C-32.15128689 26.7055599 -32.15038167 30.14035629 -32.27734375 33.94921875 C-33.27734375 34.94921875 -33.27734375 34.94921875 -35.34375 35.046875 C-36.16746094 35.03527344 -36.99117188 35.02367187 -37.83984375 35.01171875 C-38.66613281 35.00269531 -39.49242187 34.99367187 -40.34375 34.984375 C-40.98183594 34.97277344 -41.61992188 34.96117187 -42.27734375 34.94921875 C-42.27734375 34.61921875 -42.27734375 34.28921875 -42.27734375 33.94921875 C-39.96734375 33.61921875 -37.65734375 33.28921875 -35.27734375 32.94921875 C-35.06763816 28.80828177 -35.06763816 28.80828177 -36.27734375 24.94921875 C-36.31733575 22.94961863 -36.32081174 20.94874633 -36.27734375 18.94921875 C-35.00894849 18.44306577 -33.73751273 17.94452776 -32.46484375 17.44921875 C-31.75714844 17.17078125 -31.04945312 16.89234375 -30.3203125 16.60546875 C-28.27734375 15.94921875 -28.27734375 15.94921875 -25.27734375 15.94921875 C-24.99890625 14.74265625 -24.99890625 14.74265625 -24.71484375 13.51171875 C-22.36476564 7.68761213 -18.57011687 3.00064733 -13.90234375 -1.17578125 C-9.25585804 -2.72460982 -4.41930151 -2.03909452 0 0 Z " fill="#342816" transform="translate(108.27734375,3.05078125)"/>
<path d="M0 0 C0.33 0 0.66 0 1 0 C1.495 5.94 1.495 5.94 2 12 C1.34 12 0.68 12 0 12 C0 12.66 0 13.32 0 14 C0.70125 14.0825 1.4025 14.165 2.125 14.25 C7.34097692 15.61068963 11.09833555 18.48629975 14 23 C13.34 23.61875 12.68 24.2375 12 24.875 C9.7715451 26.75637427 9.7715451 26.75637427 10 29 C9.34 29 8.68 29 8 29 C8.34933594 29.45890625 8.69867188 29.9178125 9.05859375 30.390625 C9.74115234 31.31101562 9.74115234 31.31101562 10.4375 32.25 C10.88996094 32.85328125 11.34242187 33.4565625 11.80859375 34.078125 C13.03900997 36.06292756 13.56112668 37.71987655 14 40 C12.02 40 10.04 40 8 40 C8 38.02 8 36.04 8 34 C6.35 34 4.7 34 3 34 C3.54140625 34.83144531 3.54140625 34.83144531 4.09375 35.6796875 C4.5578125 36.40414062 5.021875 37.12859375 5.5 37.875 C5.9640625 38.59429687 6.428125 39.31359375 6.90625 40.0546875 C8 42 8 42 8 44 C3.25 45.125 3.25 45.125 1 44 C0.67 44.99 0.34 45.98 0 47 C-5.08279869 45.72930033 -6.91596695 44.1441694 -10 40 C-11.06248222 39.07953273 -12.14678431 38.18373109 -13.25 37.3125 C-14.1575 36.549375 -15.065 35.78625 -16 35 C-16 34.34 -16 33.68 -16 33 C-19.22596349 32.14742393 -22.46583688 31.5239577 -25.75 30.9375 C-26.73484375 30.76089844 -27.7196875 30.58429688 -28.734375 30.40234375 C-29.48203125 30.26957031 -30.2296875 30.13679688 -31 30 C-30.505 28.515 -30.505 28.515 -30 27 C-29.34 27 -28.68 27 -28 27 C-28 26.34 -28 25.68 -28 25 C-27.34 25 -26.68 25 -26 25 C-26 24.34 -26 23.68 -26 23 C-24.28515625 21.30859375 -24.28515625 21.30859375 -22.0625 19.4375 C-21.33160156 18.81746094 -20.60070312 18.19742188 -19.84765625 17.55859375 C-18.93306641 16.78708984 -18.93306641 16.78708984 -18 16 C-17.67 15.67 -17.34 15.34 -17 15 C-15.40608137 14.60224617 -13.79911776 14.25604817 -12.1875 13.9375 C-11.31480469 13.76089844 -10.44210938 13.58429688 -9.54296875 13.40234375 C-7 13 -7 13 -3 13 C-3 12.34 -3 11.68 -3 11 C-2.01 11 -1.02 11 0 11 C0 7.37 0 3.74 0 0 Z " fill="#594734" transform="translate(43,56)"/>
<path d="M0 0 C2.375 -0.125 2.375 -0.125 5 0 C7 2 7 2 7 4.125 C5.52386171 8.36889758 2.8100761 11.53681753 0 15 C2.97 14.34 5.94 13.68 9 13 C13 17.625 13 17.625 13 21 C13.66 21 14.32 21 15 21 C15.33 18.36 15.66 15.72 16 13 C16.33 13.66 16.66 14.32 17 15 C17.99 15.33 18.98 15.66 20 16 C20.11644156 19.08301416 20.18732432 22.16546123 20.25 25.25 C20.30027344 26.55904297 20.30027344 26.55904297 20.3515625 27.89453125 C20.45108452 34.41322339 20.45108452 34.41322339 18.078125 37.5 C17.39234375 37.995 16.7065625 38.49 16 39 C15.505 39.5775 15.01 40.155 14.5 40.75 C13 42 13 42 9 42 C9 42.66 9 43.32 9 44 C6 43 6 43 4.625 40.3125 C4.08875 39.219375 3.5525 38.12625 3 37 C2.13299398 35.89346079 1.23653215 34.80938334 0.3125 33.75 C-2 31 -2 31 -2 29 C-2.5775 28.731875 -3.155 28.46375 -3.75 28.1875 C-6.07363365 26.9611378 -8.03824646 25.75156566 -10 24 C-10 23.01 -10 22.02 -10 21 C-9.34 21 -8.68 21 -8 21 C-8 19.68 -8 18.36 -8 17 C-8.99 17 -9.98 17 -11 17 C-10.67 14.69 -10.34 12.38 -10 10 C-9.01 9.67 -8.02 9.34 -7 9 C-6.67 9.66 -6.34 10.32 -6 11 C-5.34 11 -4.68 11 -4 11 C-4 9.02 -4 7.04 -4 5 C-3.01 5 -2.02 5 -1 5 C-0.67 3.35 -0.34 1.7 0 0 Z " fill="#946710" transform="translate(98,3)"/>
<path d="M0 0 C5.21128179 0.57903131 7.82722896 4.68925589 11.125 8.375 C13.34305677 11.48027948 14.60895256 14.45282902 16 18 C14 20 14 20 10.7421875 20.1953125 C9.46601562 20.17210938 8.18984375 20.14890625 6.875 20.125 C4.95300781 20.09792969 4.95300781 20.09792969 2.9921875 20.0703125 C1.51105469 20.03550781 1.51105469 20.03550781 0 20 C0.04640625 20.79664062 0.0928125 21.59328125 0.140625 22.4140625 C0.36778793 29.08291706 0.34242462 32.86804363 -4 38 C-4.33 38.99 -4.66 39.98 -5 41 C-6.98 41 -8.96 41 -11 41 C-10.87625 41.9590625 -10.87625 41.9590625 -10.75 42.9375 C-11.1145247 47.40292757 -13.05237724 51.00911228 -15 55 C-16.81181405 55.19401633 -18.62448532 55.38004375 -20.4375 55.5625 C-21.95150391 55.71912109 -21.95150391 55.71912109 -23.49609375 55.87890625 C-24.32238281 55.91886719 -25.14867188 55.95882812 -26 56 C-26.33 55.67 -26.66 55.34 -27 55 C-27.33 55.66 -27.66 56.32 -28 57 C-28.81928886 55.75443908 -29.63015186 54.50333365 -30.4375 53.25 C-30.88996094 52.55390625 -31.34242187 51.8578125 -31.80859375 51.140625 C-32.96801484 49.05746842 -33.49938247 47.31353345 -34 45 C-34.33 44.34 -34.66 43.68 -35 43 C-34.34 43 -33.68 43 -33 43 C-32.67 42.34 -32.34 41.68 -32 41 C-32.66 41 -33.32 41 -34 41 C-34 40.34 -34 39.68 -34 39 C-32.68 39 -31.36 39 -30 39 C-29.67 41.97 -29.34 44.94 -29 48 C-28.608125 47.34 -28.21625 46.68 -27.8125 46 C-26 44 -26 44 -23.3125 43.75 C-22.549375 43.8325 -21.78625 43.915 -21 44 C-20.34 42.68 -19.68 41.36 -19 40 C-17.68 40 -16.36 40 -15 40 C-14.67 37.69 -14.34 35.38 -14 33 C-14.66 33 -15.32 33 -16 33 C-16 32.34 -16 31.68 -16 31 C-14.02 30.67 -12.04 30.34 -10 30 C-10 29.01 -10 28.02 -10 27 C-11.65 26.67 -13.3 26.34 -15 26 C-16.1577506 22.52674819 -16.06866652 19.63932552 -16 16 C-13.625 16.6875 -13.625 16.6875 -11 18 C-10.29788106 19.65204456 -9.63028587 21.31923769 -9 23 C-7.08333333 24.16666667 -7.08333333 24.16666667 -5 25 C-3.25 26.625 -3.25 26.625 -2 28 C-2.7734375 26.6078125 -2.7734375 26.6078125 -3.5625 25.1875 C-5 22 -5 22 -4 19 C-4 18.34 -4 17.68 -4 17 C-4 15 -4 13 -4 11 C-3.38125 11.20625 -2.7625 11.4125 -2.125 11.625 C-1.073125 11.810625 -1.073125 11.810625 0 12 C0.66 11.34 1.32 10.68 2 10 C5.125 9.875 5.125 9.875 8 10 C7.20882096 8.00016466 7.20882096 8.00016466 6 6 C5.01 5.67 4.02 5.34 3 5 C1.3125 3.5625 1.3125 3.5625 0 2 C0 1.34 0 0.68 0 0 Z " fill="#8D642B" transform="translate(90,30)"/>
<path d="M0 0 C0.53625 0.2475 1.0725 0.495 1.625 0.75 C-5.125 4.75 -5.125 4.75 -7.375 4.75 C-7.375 8.38 -7.375 12.01 -7.375 15.75 C-8.365 15.75 -9.355 15.75 -10.375 15.75 C-10.375 16.41 -10.375 17.07 -10.375 17.75 C-13.77061509 19.02335566 -16.8401998 19.84513414 -20.4375 20.125 C-24.7230727 20.80524964 -26.35034978 21.72534978 -29.375 24.75 C-30.035 25.74 -30.695 26.73 -31.375 27.75 C-32.035 27.75 -32.695 27.75 -33.375 27.75 C-33.375 28.41 -33.375 29.07 -33.375 29.75 C-34.035 29.75 -34.695 29.75 -35.375 29.75 C-35.375 30.41 -35.375 31.07 -35.375 31.75 C-36.875 33.375 -36.875 33.375 -38.375 34.75 C-37.199375 34.688125 -36.02375 34.62625 -34.8125 34.5625 C-30.40773945 34.57809207 -27.26198239 35.58225982 -23.375 37.75 C-21.25 40.1875 -21.25 40.1875 -19.375 42.75 C-17.71606818 44.09294481 -16.05023395 45.42744688 -14.375 46.75 C-13.715 47.74 -13.055 48.73 -12.375 49.75 C-9.81217258 50.47965366 -9.81217258 50.47965366 -7.375 50.75 C-6.88 49.76 -6.88 49.76 -6.375 48.75 C-5.055 49.08 -3.735 49.41 -2.375 49.75 C-1.88 48.76 -1.88 48.76 -1.375 47.75 C-0.385 48.245 -0.385 48.245 0.625 48.75 C0.08359375 47.91855469 0.08359375 47.91855469 -0.46875 47.0703125 C-0.9328125 46.34585938 -1.396875 45.62140625 -1.875 44.875 C-2.3390625 44.15570313 -2.803125 43.43640625 -3.28125 42.6953125 C-4.375 40.75 -4.375 40.75 -4.375 38.75 C-3.385 38.42 -2.395 38.09 -1.375 37.75 C-0.385 38.245 -0.385 38.245 0.625 38.75 C0.625 40.73 0.625 42.71 0.625 44.75 C3.09766765 44.40555119 3.09766765 44.40555119 5.625 43.75 C6.12 42.76 6.12 42.76 6.625 41.75 C7.12 43.73 7.12 43.73 7.625 45.75 C8.285 45.75 8.945 45.75 9.625 45.75 C10.04716258 51.87135734 9.75243454 54.90026442 5.625 59.75 C-1.55958418 66.75 -1.55958418 66.75 -4.375 66.75 C-5.365 63.12 -6.355 59.49 -7.375 55.75 C-10.345 55.255 -10.345 55.255 -13.375 54.75 C-13.705 53.76 -14.035 52.77 -14.375 51.75 C-15.055625 51.275625 -15.73625 50.80125 -16.4375 50.3125 C-17.076875 49.796875 -17.71625 49.28125 -18.375 48.75 C-18.375 47.43 -18.375 46.11 -18.375 44.75 C-19.4475 44.6675 -20.52 44.585 -21.625 44.5 C-25.66146209 43.69270758 -26.97321443 43.01642837 -29.375 39.75 C-29.375 38.76 -29.375 37.77 -29.375 36.75 C-30.695 36.75 -32.015 36.75 -33.375 36.75 C-33.643125 37.348125 -33.91125 37.94625 -34.1875 38.5625 C-35.375 40.75 -35.375 40.75 -36.9375 42.125 C-38.99778935 44.45402275 -39.0389317 46.72538534 -39.375 49.75 C-40.365 48.76 -41.355 47.77 -42.375 46.75 C-42.375 48.07 -42.375 49.39 -42.375 50.75 C-43.035 50.75 -43.695 50.75 -44.375 50.75 C-45.32761487 45.98692563 -45.45833357 41.5833472 -45.375 36.75 C-44.75625 36.5025 -44.1375 36.255 -43.5 36 C-41.25920217 34.9516053 -41.25920217 34.9516053 -40.51953125 32.921875 C-39.08329469 30.19645681 -37.28956699 28.72743563 -34.9375 26.75 C-31.60862868 23.94847292 -31.60862868 23.94847292 -28.921875 20.56640625 C-26.81178379 18.08864763 -25.2480189 18.0708197 -22.0625 17.6875 C-15.78310609 16.82453359 -15.78310609 16.82453359 -10.375 13.75 C-9.72111897 11.22541296 -9.36191129 8.72114613 -8.9921875 6.140625 C-8.375 3.75 -8.375 3.75 -5.5 1.0625 C-2.375 -0.25 -2.375 -0.25 0 0 Z " fill="#37312E" transform="translate(50.375,51.25)"/>
<path d="M0 0 C0.56847656 0.31324219 1.13695312 0.62648437 1.72265625 0.94921875 C1.72265625 1.60921875 1.72265625 2.26921875 1.72265625 2.94921875 C2.63015625 3.03171875 3.53765625 3.11421875 4.47265625 3.19921875 C8.23305905 4.06700401 9.46469392 4.85497407 11.72265625 7.94921875 C12.12029888 9.93743188 12.46040974 11.93866214 12.72265625 13.94921875 C13.38265625 14.60921875 14.04265625 15.26921875 14.72265625 15.94921875 C14.37504004 19.70347378 13.73919385 23.31872731 12.72265625 26.94921875 C13.38265625 27.27921875 14.04265625 27.60921875 14.72265625 27.94921875 C14.72265625 29.26921875 14.72265625 30.58921875 14.72265625 31.94921875 C14.06265625 31.94921875 13.40265625 31.94921875 12.72265625 31.94921875 C12.39265625 33.26921875 12.06265625 34.58921875 11.72265625 35.94921875 C8.71233175 32.93889425 8.74445952 30.72018254 8.625 26.49609375 C8.63660156 25.243125 8.64820313 23.99015625 8.66015625 22.69921875 C8.66917969 21.4359375 8.67820313 20.17265625 8.6875 18.87109375 C8.69910156 17.906875 8.71070313 16.94265625 8.72265625 15.94921875 C8.06265625 15.61921875 7.40265625 15.28921875 6.72265625 14.94921875 C6.06265625 16.92921875 5.40265625 18.90921875 4.72265625 20.94921875 C4.06265625 20.94921875 3.40265625 20.94921875 2.72265625 20.94921875 C0.93960101 18.31029699 -0.26793996 15.97743012 -1.27734375 12.94921875 C-2.91703125 13.72265625 -2.91703125 13.72265625 -4.58984375 14.51171875 C-8.27734375 15.94921875 -8.27734375 15.94921875 -11.27734375 14.94921875 C-10.64505859 14.16998047 -10.64505859 14.16998047 -10 13.375 C-5.84305396 8.24775567 -5.84305396 8.24775567 -4.27734375 1.94921875 C-6.25734375 1.28921875 -8.23734375 0.62921875 -10.27734375 -0.05078125 C-10.27734375 4.23921875 -10.27734375 8.52921875 -10.27734375 12.94921875 C-10.60734375 12.94921875 -10.93734375 12.94921875 -11.27734375 12.94921875 C-11.60734375 10.63921875 -11.93734375 8.32921875 -12.27734375 5.94921875 C-12.60734375 5.94921875 -12.93734375 5.94921875 -13.27734375 5.94921875 C-13.60734375 7.59921875 -13.93734375 9.24921875 -14.27734375 10.94921875 C-15.26734375 11.27921875 -16.25734375 11.60921875 -17.27734375 11.94921875 C-17.27734375 10.95921875 -17.27734375 9.96921875 -17.27734375 8.94921875 C-19.88782176 10.25445775 -19.95800798 11.30748449 -20.90234375 14.01171875 C-21.16273437 14.74519531 -21.423125 15.47867187 -21.69140625 16.234375 C-21.88476562 16.80027344 -22.078125 17.36617187 -22.27734375 17.94921875 C-21.61734375 17.94921875 -20.95734375 17.94921875 -20.27734375 17.94921875 C-20.27734375 18.60921875 -20.27734375 19.26921875 -20.27734375 19.94921875 C-21.04820313 19.93761719 -21.8190625 19.92601563 -22.61328125 19.9140625 C-23.61617187 19.90503906 -24.6190625 19.89601563 -25.65234375 19.88671875 C-27.14894531 19.86931641 -27.14894531 19.86931641 -28.67578125 19.8515625 C-31.26166828 19.76915273 -31.26166828 19.76915273 -33.27734375 20.94921875 C-33.11234375 21.60921875 -32.94734375 22.26921875 -32.77734375 22.94921875 C-32.15128689 26.7055599 -32.15038167 30.14035629 -32.27734375 33.94921875 C-33.27734375 34.94921875 -33.27734375 34.94921875 -35.34375 35.046875 C-36.16746094 35.03527344 -36.99117188 35.02367187 -37.83984375 35.01171875 C-38.66613281 35.00269531 -39.49242188 34.99367187 -40.34375 34.984375 C-40.98183594 34.97277344 -41.61992188 34.96117187 -42.27734375 34.94921875 C-42.27734375 34.61921875 -42.27734375 34.28921875 -42.27734375 33.94921875 C-38.81234375 33.45421875 -38.81234375 33.45421875 -35.27734375 32.94921875 C-35.06763816 28.80828177 -35.06763816 28.80828177 -36.27734375 24.94921875 C-36.31733575 22.94961863 -36.32081174 20.94874633 -36.27734375 18.94921875 C-35.00894849 18.44306577 -33.73751273 17.94452776 -32.46484375 17.44921875 C-31.75714844 17.17078125 -31.04945312 16.89234375 -30.3203125 16.60546875 C-28.27734375 15.94921875 -28.27734375 15.94921875 -25.27734375 15.94921875 C-25.09171875 15.14484375 -24.90609375 14.34046875 -24.71484375 13.51171875 C-22.36476564 7.68761213 -18.57011687 3.00064733 -13.90234375 -1.17578125 C-9.25585804 -2.72460982 -4.41930151 -2.03909452 0 0 Z " fill="#36291B" transform="translate(108.27734375,3.05078125)"/>
<path d="M0 0 C0.33 0.66 0.66 1.32 1 2 C1.99 2 2.98 2 4 2 C4 3.32 4 4.64 4 6 C3.34 6 2.68 6 2 6 C2 6.99 2 7.98 2 9 C3.32 9.66 4.64 10.32 6 11 C5.34 11.33 4.68 11.66 4 12 C4 12.66 4 13.32 4 14 C4.99 14.33 5.98 14.66 7 15 C7 15.66 7 16.32 7 17 C8.32 17.33 9.64 17.66 11 18 C11.495 19.98 11.495 19.98 12 22 C8.12315913 23.19287411 5.08378077 24 1 24 C0.91113816 27.19902639 1.08941469 29.92677456 2 33 C1.34 32.67 0.68 32.34 0 32 C0.4640625 33.36125 0.4640625 33.36125 0.9375 34.75 C1.7272263 37.16563338 2.42949297 39.52780285 3 42 C2.67 41.34 2.34 40.68 2 40 C0.515 39.505 0.515 39.505 -1 39 C-2.5703125 37.44140625 -2.5703125 37.44140625 -4.125 35.5625 C-4.64320312 34.94503906 -5.16140625 34.32757813 -5.6953125 33.69140625 C-7 32 -7 32 -8 30 C-8.99 29.67 -9.98 29.34 -11 29 C-11.66 29.99 -12.32 30.98 -13 32 C-13 31.34 -13 30.68 -13 30 C-14.98 29.67 -16.96 29.34 -19 29 C-18.34 29.99 -17.68 30.98 -17 32 C-16.92094936 34.33199388 -16.91201231 36.66832622 -17 39 C-19.375 39.1875 -19.375 39.1875 -22 39 C-22.66 38.01 -23.32 37.02 -24 36 C-23.01 34.35 -22.02 32.7 -21 31 C-22.97536745 31.34786708 -22.97536745 31.34786708 -25 32 C-25.33 32.66 -25.66 33.32 -26 34 C-26.66 34 -27.32 34 -28 34 C-28.04241723 31.66705225 -28.04092937 29.33297433 -28 27 C-27 26 -27 26 -24.4375 25.9375 C-23.2309375 25.9684375 -23.2309375 25.9684375 -22 26 C-22 26.66 -22 27.32 -22 28 C-20.02 27.67 -18.04 27.34 -16 27 C-16 26.34 -16 25.68 -16 25 C-17.98 24.67 -19.96 24.34 -22 24 C-21.34 23.01 -20.68 22.02 -20 21 C-17.22737745 20.61605333 -14.65676472 20.39657752 -11.875 20.3125 C-11.12089844 20.27833984 -10.36679688 20.24417969 -9.58984375 20.20898438 C-7.72708799 20.12645722 -5.86356674 20.06155289 -4 20 C-4.66 19.34 -5.32 18.68 -6 18 C-5.52269162 16.5410574 -5.04308958 15.08286504 -4.5625 13.625 C-4.29566406 12.81289063 -4.02882813 12.00078125 -3.75390625 11.1640625 C-3 9 -3 9 -2 7 C-4.31 7 -6.62 7 -9 7 C-8.67 6.01 -8.34 5.02 -8 4 C-4.7 4.33 -1.4 4.66 2 5 C2 4.34 2 3.68 2 3 C1.34 3 0.68 3 0 3 C0 2.01 0 1.02 0 0 Z " fill="#977F55" transform="translate(86,18)"/>
<path d="M0 0 C3.47508641 0.30889657 5.73419628 1.64671681 8.8125 3.25 C12.22595866 4.20259312 13.39670426 4.38859858 16.8125 3.25 C16.8125 3.91 16.8125 4.57 16.8125 5.25 C16.1525 5.25 15.4925 5.25 14.8125 5.25 C15.1425 7.23 15.4725 9.21 15.8125 11.25 C15.1525 11.25 14.4925 11.25 13.8125 11.25 C14.16183594 11.70890625 14.51117188 12.1678125 14.87109375 12.640625 C15.55365234 13.56101562 15.55365234 13.56101562 16.25 14.5 C16.92869141 15.40492187 16.92869141 15.40492187 17.62109375 16.328125 C18.85150997 18.31292756 19.37362668 19.96987655 19.8125 22.25 C17.8325 22.25 15.8525 22.25 13.8125 22.25 C13.8125 20.27 13.8125 18.29 13.8125 16.25 C12.1625 16.25 10.5125 16.25 8.8125 16.25 C9.1734375 16.80429688 9.534375 17.35859375 9.90625 17.9296875 C10.3703125 18.65414062 10.834375 19.37859375 11.3125 20.125 C12.00859375 21.20394531 12.00859375 21.20394531 12.71875 22.3046875 C13.8125 24.25 13.8125 24.25 13.8125 26.25 C9.0625 27.375 9.0625 27.375 6.8125 26.25 C6.4825 27.24 6.1525 28.23 5.8125 29.25 C0.74836842 27.98396711 -1.12717282 26.39624973 -4.1875 22.25 C-5.095 21.54875 -6.0025 20.8475 -6.9375 20.125 C-7.68 19.50625 -8.4225 18.8875 -9.1875 18.25 C-9.1875 17.26 -9.1875 16.27 -9.1875 15.25 C-6.8775 14.59 -4.5675 13.93 -2.1875 13.25 C-3.115625 13.0334375 -3.115625 13.0334375 -4.0625 12.8125 C-6.1875 12.25 -6.1875 12.25 -8.1875 11.25 C-7.1875 9.25 -7.1875 9.25 -3.1875 7.25 C0.1125 9.56 3.4125 11.87 6.8125 14.25 C6.4825 11.61 6.1525 8.97 5.8125 6.25 C3.8634375 6.5284375 3.8634375 6.5284375 1.875 6.8125 C-0.33984375 7.12890625 -0.33984375 7.12890625 -2.1875 7.25 C-3.1875 6.25 -3.1875 6.25 -3.3125 3.75 C-3.15375791 0.57515827 -3.12708721 0.3573814 0 0 Z " fill="#B4985B" transform="translate(37.1875,73.75)"/>
<path d="M0 0 C0.99 0.33 1.98 0.66 3 1 C3 2.98 3 4.96 3 7 C5.47266765 6.65555119 5.47266765 6.65555119 8 6 C8.33 5.34 8.66 4.68 9 4 C9.33 5.32 9.66 6.64 10 8 C10.66 8 11.32 8 12 8 C12.42216258 14.12135734 12.12743454 17.15026442 8 22 C0.81541582 29 0.81541582 29 -2 29 C-2.25523438 27.89591797 -2.25523438 27.89591797 -2.515625 26.76953125 C-4.39314294 19.20561596 -4.39314294 19.20561596 -9 13 C-7.68 13 -6.36 13 -5 13 C-4.67 12.34 -4.34 11.68 -4 11 C-2.68 11.33 -1.36 11.66 0 12 C0.33 11.34 0.66 10.68 1 10 C1.66 10.33 2.32 10.66 3 11 C2.6390625 10.44570312 2.278125 9.89140625 1.90625 9.3203125 C1.4421875 8.59585938 0.978125 7.87140625 0.5 7.125 C0.0359375 6.40570313 -0.428125 5.68640625 -0.90625 4.9453125 C-2 3 -2 3 -2 1 C-1.34 0.67 -0.68 0.34 0 0 Z " fill="#523522" transform="translate(48,89)"/>
<path d="M0 0 C0.33 0.66 0.66 1.32 1 2 C1.99 2.33 2.98 2.66 4 3 C4.11644156 6.08301416 4.18732432 9.16546123 4.25 12.25 C4.30027344 13.55904297 4.30027344 13.55904297 4.3515625 14.89453125 C4.45099515 21.40737001 4.45099515 21.40737001 2.109375 24.484375 C1.41328125 24.98453125 0.7171875 25.4846875 0 26 C-0.66 26.66 -1.32 27.32 -2 28 C-2 27.34 -2 26.68 -2 26 C-2.886875 26.103125 -3.77375 26.20625 -4.6875 26.3125 C-8 26 -8 26 -10.875 23.75 C-13 21 -13 21 -13 17 C-13.99 16.01 -14.98 15.02 -16 14 C-11.05 14.99 -11.05 14.99 -6 16 C-6 15.34 -6 14.68 -6 14 C-5.01 14 -4.02 14 -3 14 C-3 12.02 -3 10.04 -3 8 C-2.34 8 -1.68 8 -1 8 C-0.67 5.36 -0.34 2.72 0 0 Z " fill="#6F5510" transform="translate(114,16)"/>
<path d="M0 0 C0 0.66 0 1.32 0 2 C-1.65 2.66 -3.3 3.32 -5 4 C-3.5459375 4.61875 -3.5459375 4.61875 -2.0625 5.25 C1 7 1 7 1.875 9.1875 C1.91625 9.785625 1.9575 10.38375 2 11 C0.68 11.33 -0.64 11.66 -2 12 C-0.02 12 1.96 12 4 12 C4 12.99 4 13.98 4 15 C2.865625 15.12375 1.73125 15.2475 0.5625 15.375 C-1.2009375 15.684375 -1.2009375 15.684375 -3 16 C-3.33 16.66 -3.66 17.32 -4 18 C-4 17.34 -4 16.68 -4 16 C-7.22596349 15.14742393 -10.46583688 14.5239577 -13.75 13.9375 C-14.73484375 13.76089844 -15.7196875 13.58429688 -16.734375 13.40234375 C-17.48203125 13.26957031 -18.2296875 13.13679688 -19 13 C-18.67 12.01 -18.34 11.02 -18 10 C-17.34 10 -16.68 10 -16 10 C-16 9.34 -16 8.68 -16 8 C-15.34 8 -14.68 8 -14 8 C-14 7.34 -14 6.68 -14 6 C-9.32714689 1.74251161 -6.51025325 -0.17595279 0 0 Z " fill="#5D4C1D" transform="translate(31,73)"/>
<path d="M0 0 C2.47103645 2.25300382 3.88449905 3.95349136 4.2578125 7.3359375 C4.25076427 9.57022526 4.17467356 11.77291216 4 14 C3.01 14 2.02 14 1 14 C1 14.66 1 15.32 1 16 C-4.75 16.125 -4.75 16.125 -7 15 C-7 14.34 -7 13.68 -7 13 C-7.556875 12.731875 -8.11375 12.46375 -8.6875 12.1875 C-11.19712523 10.89877353 -13.59334236 9.47073522 -16 8 C-15.67 7.01 -15.34 6.02 -15 5 C-12.69 5 -10.38 5 -8 5 C-7.67 4.01 -7.34 3.02 -7 2 C-4.56723614 0.81480735 -2.71982714 0 0 0 Z " fill="#E69C27" transform="translate(107,16)"/>
<path d="M0 0 C5.98345934 0.26593153 10.36560093 0.82904084 15 5 C15.6875 7.4375 15.6875 7.4375 16 10 C16.53625 10.86625 17.0725 11.7325 17.625 12.625 C18.305625 13.800625 18.305625 13.800625 19 15 C18.67 15.99 18.34 16.98 18 18 C18 17.34 18 16.68 18 16 C17.01 15.67 16.02 15.34 15 15 C13.4296875 13.44140625 13.4296875 13.44140625 11.875 11.5625 C11.35679688 10.94503906 10.83859375 10.32757813 10.3046875 9.69140625 C9 8 9 8 8 6 C7.01 5.67 6.02 5.34 5 5 C4.01 6.485 4.01 6.485 3 8 C3 7.34 3 6.68 3 6 C0.03 5.505 0.03 5.505 -3 5 C-2.01 6.485 -2.01 6.485 -1 8 C-0.92094936 10.33199388 -0.91201231 12.66832622 -1 15 C-3.375 15.1875 -3.375 15.1875 -6 15 C-6.66 14.01 -7.32 13.02 -8 12 C-7.01 10.35 -6.02 8.7 -5 7 C-6.97536745 7.34786708 -6.97536745 7.34786708 -9 8 C-9.33 8.66 -9.66 9.32 -10 10 C-10.66 10 -11.32 10 -12 10 C-12.04241723 7.66705225 -12.04092937 5.33297433 -12 3 C-11 2 -11 2 -8.4375 1.9375 C-7.2309375 1.9684375 -7.2309375 1.9684375 -6 2 C-6 2.66 -6 3.32 -6 4 C-4.02 3.67 -2.04 3.34 0 3 C0 2.01 0 1.02 0 0 Z " fill="#A3845D" transform="translate(70,42)"/>
<path d="M0 0 C3.47508641 0.30889657 5.73419628 1.64671681 8.8125 3.25 C12.22595866 4.20259312 13.39670426 4.38859858 16.8125 3.25 C16.8125 3.91 16.8125 4.57 16.8125 5.25 C16.1525 5.25 15.4925 5.25 14.8125 5.25 C15.1425 7.23 15.4725 9.21 15.8125 11.25 C15.1525 11.25 14.4925 11.25 13.8125 11.25 C14.16183594 11.70890625 14.51117188 12.1678125 14.87109375 12.640625 C15.55365234 13.56101562 15.55365234 13.56101562 16.25 14.5 C16.92869141 15.40492187 16.92869141 15.40492187 17.62109375 16.328125 C18.85150997 18.31292756 19.37362668 19.96987655 19.8125 22.25 C17.8325 22.25 15.8525 22.25 13.8125 22.25 C13.8125 20.27 13.8125 18.29 13.8125 16.25 C12.843125 16.435625 11.87375 16.62125 10.875 16.8125 C9.864375 16.956875 8.85375 17.10125 7.8125 17.25 C6.14907163 15.58657163 6.45201903 13.4674291 6.25 11.1875 C6.16621094 10.26839844 6.08242188 9.34929687 5.99609375 8.40234375 C5.93550781 7.69207031 5.87492187 6.98179688 5.8125 6.25 C3.8634375 6.5284375 3.8634375 6.5284375 1.875 6.8125 C-0.33984375 7.12890625 -0.33984375 7.12890625 -2.1875 7.25 C-3.1875 6.25 -3.1875 6.25 -3.3125 3.75 C-3.15375791 0.57515827 -3.12708721 0.3573814 0 0 Z " fill="#756432" transform="translate(37.1875,73.75)"/>
<path d="M0 0 C3 1 3 1 4.6875 3.875 C6 7 6 7 6 10 C7.65 10 9.3 10 11 10 C11.66 11.32 12.32 12.64 13 14 C9.30581799 15.231394 6.7943739 14.64432764 3 14 C3.33 14.7425 3.66 15.485 4 16.25 C5 19 5 19 5 23 C4.01 23 3.02 23 2 23 C1.773125 22.21625 1.54625 21.4325 1.3125 20.625 C0.21875 17.78125 0.21875 17.78125 -2.625 16.6875 C-3.40875 16.460625 -4.1925 16.23375 -5 16 C-5 15.34 -5 14.68 -5 14 C-5.763125 13.731875 -6.52625 13.46375 -7.3125 13.1875 C-9.87380884 12.05575888 -11.19692938 11.08776599 -13 9 C-12.34 9 -11.68 9 -11 9 C-11 8.34 -11 7.68 -11 7 C-10.01 7 -9.02 7 -8 7 C-7.67 7.99 -7.34 8.98 -7 10 C-4.69 10.33 -2.38 10.66 0 11 C-0.45822468 7.53058454 -0.89131683 4.32604951 -2 1 C-1.34 0.67 -0.68 0.34 0 0 Z " fill="#E1CD87" transform="translate(69,46)"/>
<path d="M0 0 C5.21128179 0.57903131 7.82722896 4.68925589 11.125 8.375 C13.34305677 11.48027948 14.60895256 14.45282902 16 18 C14 20 14 20 10.7421875 20.1953125 C9.46601562 20.17210938 8.18984375 20.14890625 6.875 20.125 C4.95300781 20.09792969 4.95300781 20.09792969 2.9921875 20.0703125 C1.51105469 20.03550781 1.51105469 20.03550781 0 20 C-0.33 20.66 -0.66 21.32 -1 22 C-1 21.01 -1 20.02 -1 19 C1.97 19 4.94 19 8 19 C8 17.68 8 16.36 8 15 C4.7 15.33 1.4 15.66 -2 16 C-2.66 14.35 -3.32 12.7 -4 11 C-3.38125 11.20625 -2.7625 11.4125 -2.125 11.625 C-1.073125 11.810625 -1.073125 11.810625 0 12 C0.66 11.34 1.32 10.68 2 10 C5.125 9.875 5.125 9.875 8 10 C7.20882096 8.00016466 7.20882096 8.00016466 6 6 C5.01 5.67 4.02 5.34 3 5 C1.3125 3.5625 1.3125 3.5625 0 2 C0 1.34 0 0.68 0 0 Z " fill="#69502C" transform="translate(90,30)"/>
<path d="M0 0 C0 3.96 0 7.92 0 12 C-0.33 12 -0.66 12 -1 12 C-1.33 9.69 -1.66 7.38 -2 5 C-2.33 5 -2.66 5 -3 5 C-3.33 6.65 -3.66 8.3 -4 10 C-4.99 10.33 -5.98 10.66 -7 11 C-7 10.01 -7 9.02 -7 8 C-9.61047801 9.305239 -9.68066423 10.35826574 -10.625 13.0625 C-10.88539062 13.79597656 -11.14578125 14.52945312 -11.4140625 15.28515625 C-11.60742188 15.85105469 -11.80078125 16.41695312 -12 17 C-11.34 17 -10.68 17 -10 17 C-10 17.66 -10 18.32 -10 19 C-10.77085938 18.98839844 -11.54171875 18.97679688 -12.3359375 18.96484375 C-13.33882812 18.95582031 -14.34171875 18.94679688 -15.375 18.9375 C-16.87160156 18.92009766 -16.87160156 18.92009766 -18.3984375 18.90234375 C-20.98432453 18.81993398 -20.98432453 18.81993398 -23 20 C-22.835 20.66 -22.67 21.32 -22.5 22 C-21.87394314 25.75634115 -21.87303792 29.19113754 -22 33 C-23 34 -23 34 -25.06640625 34.09765625 C-25.89011719 34.08605469 -26.71382813 34.07445312 -27.5625 34.0625 C-28.38878906 34.05347656 -29.21507813 34.04445312 -30.06640625 34.03515625 C-30.70449219 34.02355469 -31.34257813 34.01195312 -32 34 C-32 33.67 -32 33.34 -32 33 C-28.535 32.505 -28.535 32.505 -25 32 C-24.79029441 27.85906302 -24.79029441 27.85906302 -26 24 C-26.039992 22.00039988 -26.04346799 19.99952758 -26 18 C-24.73160474 17.49384702 -23.46016898 16.99530901 -22.1875 16.5 C-21.47980469 16.2215625 -20.77210937 15.943125 -20.04296875 15.65625 C-18 15 -18 15 -15 15 C-14.7525 14.13375 -14.505 13.2675 -14.25 12.375 C-12.93221387 8.81697746 -11.19813178 6.0773845 -9 3 C-8.34 4.32 -7.68 5.64 -7 7 C-7 6.34 -7 5.68 -7 5 C-6.34 5 -5.68 5 -5 5 C-5 4.34 -5 3.68 -5 3 C-1.42307692 0 -1.42307692 0 0 0 Z " fill="#503819" transform="translate(98,4)"/>
<path d="M0 0 C0.33 0 0.66 0 1 0 C1 2.31 1 4.62 1 7 C0.38125 7.226875 -0.2375 7.45375 -0.875 7.6875 C-3.22658694 8.83502307 -3.22658694 8.83502307 -3.875 11.4375 C-5.42833423 14.97565018 -7.57846295 15.39397241 -11 17 C-12.85315257 19.04946399 -12.85315257 19.04946399 -14 21 C-18.34707859 20.391409 -22.66896002 19.72184 -27 19 C-27 23.29 -27 27.58 -27 32 C-28.485 32.495 -28.485 32.495 -30 33 C-29.67 27.72 -29.34 22.44 -29 17 C-23.67773438 16.8046875 -23.67773438 16.8046875 -18.35546875 16.609375 C-14.93412205 16.34899895 -14.93412205 16.34899895 -13.2421875 13.98046875 C-12.83226563 13.32691406 -12.42234375 12.67335938 -12 12 C-10.4840625 11.7834375 -10.4840625 11.7834375 -8.9375 11.5625 C-7.968125 11.376875 -6.99875 11.19125 -6 11 C-4.75285597 8.59047977 -4.75285597 8.59047977 -4 6 C-3.01 5.34 -2.02 4.68 -1 4 C-0.27617533 1.94074861 -0.27617533 1.94074861 0 0 Z " fill="#322318" transform="translate(119,33)"/>
<path d="M0 0 C0.66 0.33 1.32 0.66 2 1 C1.67 1.99 1.34 2.98 1 4 C1.66 4 2.32 4 3 4 C2.67 5.65 2.34 7.3 2 9 C2.66 9 3.32 9 4 9 C3.98839844 9.60328125 3.97679688 10.2065625 3.96484375 10.828125 C3.95582031 11.62734375 3.94679688 12.4265625 3.9375 13.25 C3.92589844 14.03890625 3.91429688 14.8278125 3.90234375 15.640625 C3.99614694 17.90691002 4.36758937 19.8288895 5 22 C4.57589844 21.57847656 4.15179688 21.15695313 3.71484375 20.72265625 C-0.45051589 16.83193571 -3.13613388 15.33191695 -9 15 C-10.33568021 14.67619874 -11.66923011 14.34342449 -13 14 C-14.99788438 13.65421232 -16.99759451 13.31856451 -19 13 C-18.34 12.01 -17.68 11.02 -17 10 C-14.22737745 9.61605333 -11.65676472 9.39657752 -8.875 9.3125 C-8.12089844 9.27833984 -7.36679688 9.24417969 -6.58984375 9.20898438 C-4.72708799 9.12645722 -2.86356674 9.06155289 -1 9 C-1.66 8.34 -2.32 7.68 -3 7 C-2.01 7 -1.02 7 0 7 C0 4.69 0 2.38 0 0 Z " fill="#BDC49C" transform="translate(83,29)"/>
<path d="M0 0 C1.32 0.33 2.64 0.66 4 1 C2.515 2.485 2.515 2.485 1 4 C1.556875 4.061875 2.11375 4.12375 2.6875 4.1875 C5.94987173 5.33373872 7.68667874 7.49390197 10 10 C9.67 10.33 9.34 10.66 9 11 C9.474375 11.4125 9.94875 11.825 10.4375 12.25 C12.19900082 14.22288091 12.37100441 15.48401763 13 18 C14.87874434 20.66979459 15.92415402 20.98364106 19.1875 21.6875 C20.115625 21.790625 21.04375 21.89375 22 22 C21.67 22.99 21.34 23.98 21 25 C19.68 25 18.36 25 17 25 C17 25.66 17 26.32 17 27 C14 26 14 26 12.625 23.3125 C12.08875 22.219375 11.5525 21.12625 11 20 C10.13299398 18.89346079 9.23653215 17.80938334 8.3125 16.75 C6 14 6 14 6 12 C5.4225 11.731875 4.845 11.46375 4.25 11.1875 C1.92636635 9.9611378 -0.03824646 8.75156566 -2 7 C-2 6.01 -2 5.02 -2 4 C-1.34 4 -0.68 4 0 4 C0 2.68 0 1.36 0 0 Z " fill="#D7BF8A" transform="translate(90,20)"/>
<path d="M0 0 C0.99 0 1.98 0 3 0 C3.33 2.64 3.66 5.28 4 8 C7.3 8 10.6 8 14 8 C14 8.66 14 9.32 14 10 C13.01 10 12.02 10 11 10 C11 10.66 11 11.32 11 12 C11.66 12 12.32 12 13 12 C12.67 12.99 12.34 13.98 12 15 C12.33 15.66 12.66 16.32 13 17 C12.67 17.99 12.34 18.98 12 20 C11.36384766 19.40251953 11.36384766 19.40251953 10.71484375 18.79296875 C6.67232555 15.14137539 3.11349698 12.87842746 -2 11 C-2 10.34 -2 9.68 -2 9 C-1.34 9 -0.68 9 0 9 C0 6.03 0 3.06 0 0 Z " fill="#A99563" transform="translate(45,59)"/>
<path d="M0 0 C2.375 0.5625 2.375 0.5625 5 2 C6.3125 5.625 6.3125 5.625 7 9 C7 7.68 7 6.36 7 5 C8.65 5.33 10.3 5.66 12 6 C12 4.68 12 3.36 12 2 C12.66 2 13.32 2 14 2 C14.84811399 4.71396477 15.31066778 6.22987895 15 9 C13.05718192 12.06901207 10.76221365 14.64201273 8 17 C7.34 17 6.68 17 6 17 C5.82984375 16.26394531 5.6596875 15.52789062 5.484375 14.76953125 C3.60685706 7.20561596 3.60685706 7.20561596 -1 1 C-0.67 0.67 -0.34 0.34 0 0 Z " fill="#534944" transform="translate(40,101)"/>
<path d="M0 0 C1.32 0 2.64 0 4 0 C4.33 2.97 4.66 5.94 5 9 C5.99 8.34 6.98 7.68 8 7 C8.33 7.99 8.66 8.98 9 10 C12.00847418 11.22520264 12.00847418 11.22520264 15 12 C15 13.32 15 14.64 15 16 C12.6739143 16.38063221 10.33944736 16.71269945 8 17 C7.67 16.67 7.34 16.34 7 16 C6.67 16.66 6.34 17.32 6 18 C5.18071114 16.75443908 4.36984814 15.50333365 3.5625 14.25 C3.11003906 13.55390625 2.65757813 12.8578125 2.19140625 12.140625 C1.03198516 10.05746842 0.50061753 8.31353345 0 6 C-0.33 5.34 -0.66 4.68 -1 4 C-0.34 4 0.32 4 1 4 C1.33 3.34 1.66 2.68 2 2 C1.34 2 0.68 2 0 2 C0 1.34 0 0.68 0 0 Z " fill="#846D2F" transform="translate(56,69)"/>
<path d="M0 0 C2.64 0 5.28 0 8 0 C8 0.66 8 1.32 8 2 C8.66 2.33 9.32 2.66 10 3 C10 4.65 10 6.3 10 8 C12.31 8 14.62 8 17 8 C17.33 7.34 17.66 6.68 18 6 C19.60725635 9.21451269 19.05748185 12.43612536 19 16 C15.98935399 14.58322541 13.34629459 12.90968041 10.625 11 C7.18216632 8.66683998 4.06786834 7.04304316 0 6 C1.3125 4.5 1.3125 4.5 3 3 C3.99 3 4.98 3 6 3 C6 2.34 6 1.68 6 1 C3.69 1.33 1.38 1.66 -1 2 C-0.67 1.34 -0.34 0.68 0 0 Z " fill="#795944" transform="translate(25,72)"/>
<path d="M0 0 C0 0.66 0 1.32 0 2 C-1.65 2.66 -3.3 3.32 -5 4 C-3.5459375 4.61875 -3.5459375 4.61875 -2.0625 5.25 C1 7 1 7 1.875 9.1875 C1.936875 10.0846875 1.936875 10.0846875 2 11 C-1.23446692 11.0898463 -3.88698394 10.82403366 -7 10 C-9.33094534 9.6503582 -11.66404762 9.31445513 -14 9 C-14 8.01 -14 7.02 -14 6 C-9.33537804 1.64635284 -6.35859809 -0.171854 0 0 Z " fill="#A89972" transform="translate(31,73)"/>
<path d="M0 0 C1.4606285 2.64738916 2 3.89448334 2 7 C2.66 7 3.32 7 4 7 C3.67 8.65 3.34 10.3 3 12 C0.03 11.505 0.03 11.505 -3 11 C-3 10.34 -3 9.68 -3 9 C-3.556875 8.731875 -4.11375 8.46375 -4.6875 8.1875 C-7.19712523 6.89877353 -9.59334236 5.47073522 -12 4 C-11.67 3.01 -11.34 2.02 -11 1 C-10.2575 1.20625 -9.515 1.4125 -8.75 1.625 C-5.063661 2.12768259 -3.45218329 0 0 0 Z " fill="#F8E323" transform="translate(103,20)"/>
<path d="M0 0 C3.92026737 -0.17819397 6.73040093 -0.28871935 10 2 C11.34919532 3.65385233 12.68133728 5.321702 14 7 C15.175625 7.8971875 15.175625 7.8971875 16.375 8.8125 C19.90378852 11.7531571 22.36187334 15.26492033 25 19 C23.35 19 21.7 19 20 19 C19.67 18.01 19.34 17.02 19 16 C17.9790625 15.2884375 17.9790625 15.2884375 16.9375 14.5625 C16.298125 14.046875 15.65875 13.53125 15 13 C15 11.68 15 10.36 15 9 C13.9275 8.9175 12.855 8.835 11.75 8.75 C7.71353791 7.94270758 6.40178557 7.26642837 4 4 C4 3.01 4 2.02 4 1 C2.68 0.67 1.36 0.34 0 0 Z " fill="#4F3B13" transform="translate(17,87)"/>
<path d="M0 0 C0.33 0.66 0.66 1.32 1 2 C1.99 2.33 2.98 2.66 4 3 C3.6579194 11.96251172 3.6579194 11.96251172 1.375 15.5625 C-1.71399937 17.43215751 -4.4316664 17.7255128 -8 18 C-8.33 17.34 -8.66 16.68 -9 16 C-8.01 16 -7.02 16 -6 16 C-6 15.34 -6 14.68 -6 14 C-5.01 14 -4.02 14 -3 14 C-3 12.02 -3 10.04 -3 8 C-2.34 8 -1.68 8 -1 8 C-0.67 5.36 -0.34 2.72 0 0 Z " fill="#C49A4B" transform="translate(114,16)"/>
<path d="M0 0 C12.30797456 10.00244618 12.30797456 10.00244618 13 16 C11.02 16 9.04 16 7 16 C7 14.02 7 12.04 7 10 C5.5459375 10.2784375 5.5459375 10.2784375 4.0625 10.5625 C3.051875 10.706875 2.04125 10.85125 1 11 C0 10 0 10 -0.09765625 7.71484375 C-0.08605469 6.79832031 -0.07445312 5.88179688 -0.0625 4.9375 C-0.05347656 4.01839844 -0.04445312 3.09929687 -0.03515625 2.15234375 C-0.02355469 1.44207031 -0.01195312 0.73179688 0 0 Z " fill="#A8864C" transform="translate(44,80)"/>
<path d="M0 0 C1.5625 1.1875 1.5625 1.1875 3 3 C3.0625 5.4375 3.0625 5.4375 2 8 C0.576875 8.928125 0.576875 8.928125 -0.875 9.875 C-4.86484295 12.58809321 -5.45316908 14.53137734 -7 19 C-7.66 19 -8.32 19 -9 19 C-9.33 20.32 -9.66 21.64 -10 23 C-11.6112798 17.28728072 -10.08989546 13.31329355 -8 8 C-6.02 8 -4.04 8 -2 8 C-1.855625 7.4225 -1.71125 6.845 -1.5625 6.25 C-1.04166667 4.16666667 -0.52083333 2.08333333 0 0 Z " fill="#453A26" transform="translate(87,63)"/>
<path d="M0 0 C0.33 0.66 0.66 1.32 1 2 C4.02934491 2.65772428 4.02934491 2.65772428 7 3 C6.01 6.63 5.02 10.26 4 14 C2.68 14 1.36 14 0 14 C-3.06517632 7.02109572 -3.06517632 7.02109572 -2.8125 3.0625 C-2 1 -2 1 0 0 Z " fill="#8D704C" transform="translate(77,22)"/>
<path d="M0 0 C7.1799254 2.39330847 12.68589705 6.85567156 17 13 C17 14.32 17 15.64 17 17 C15.68 17.33 14.36 17.66 13 18 C12.835 17.154375 12.67 16.30875 12.5 15.4375 C10.41876433 10.66800159 7.29330232 7.87810266 3 5 C-0.29889553 3.96975233 -0.29889553 3.96975233 -3 4 C-2 2 -2 2 0 0 Z " fill="#E9D88D" transform="translate(32,81)"/>
<path d="M0 0 C5 5.15804598 5 5.15804598 5 8 C-1.44330198 7.66672576 -4.50882152 6.7157374 -9 2 C-9 1.01 -9 0.02 -9 -1 C-5.21147807 -2.0523672 -3.24644951 -2.33338559 0 0 Z " fill="#E9DB8B" transform="translate(37,90)"/>
<path d="M0 0 C1.32 0 2.64 0 4 0 C4 0.99 4 1.98 4 3 C5.19625 2.896875 6.3925 2.79375 7.625 2.6875 C11.11559679 2.65644487 12.83724368 3.2385682 15.5 5.5 C16.7375 6.7375 16.7375 6.7375 18 8 C14.7652738 9.07824207 12.86460605 8.99049544 9.5 8.6875 C8.06140625 8.56955078 8.06140625 8.56955078 6.59375 8.44921875 C4 8 4 8 1 6 C0.3125 2.875 0.3125 2.875 0 0 Z " fill="#64512B" transform="translate(47,58)"/>
<path d="M0 0 C1.32 0 2.64 0 4 0 C3.34 1.65 2.68 3.3 2 5 C2.99 5.66 3.98 6.32 5 7 C3.1875 7.625 3.1875 7.625 1 8 C0.01 7.34 -0.98 6.68 -2 6 C-1.34 6 -0.68 6 0 6 C0 5.34 0 4.68 0 4 C-0.99 4 -1.98 4 -3 4 C-3 4.66 -3 5.32 -3 6 C-4.98 6.33 -6.96 6.66 -9 7 C-9 7.33 -9 7.66 -9 8 C-10.98 8 -12.96 8 -15 8 C-15 7.01 -15 6.02 -15 5 C-9.77729131 2.33535271 -6.9180497 1.67145823 -1 3 C-0.67 2.01 -0.34 1.02 0 0 Z " fill="#A7946F" transform="translate(61,49)"/>
<path d="M0 0 C0.66 0 1.32 0 2 0 C2.433125 1.093125 2.86625 2.18625 3.3125 3.3125 C4.28998393 5.64162439 4.90929498 6.91253445 6.75 8.6875 C7.1625 9.120625 7.575 9.55375 8 10 C7.6875 12.1875 7.6875 12.1875 7 14 C6.34 14 5.68 14 5 14 C3.21694476 11.36107824 2.00940379 9.02821137 1 6 C-0.093125 6.515625 -1.18625 7.03125 -2.3125 7.5625 C-6 9 -6 9 -9 8 C-5.38671875 3.3125 -5.38671875 3.3125 -4 2 C-3.01 2 -2.02 2 -1 2 C-0.67 1.34 -0.34 0.68 0 0 Z " fill="#8F5511" transform="translate(106,10)"/>
<path d="M0 0 C1.98 0 3.96 0 6 0 C6 0.66 6 1.32 6 2 C6.66 2 7.32 2 8 2 C8 2.66 8 3.32 8 4 C8.99 4 9.98 4 11 4 C11.33 3.34 11.66 2.68 12 2 C13.04449911 5.13349732 12.93423645 5.98968256 12 9 C12.66 9 13.32 9 14 9 C13.67 9.66 13.34 10.32 13 11 C9.84012675 11 8.63965207 10.61785127 6 9 C4 6 4 6 4 2 C3.34 2 2.68 2 2 2 C1.67 2.99 1.34 3.98 1 5 C0.34 5 -0.32 5 -1 5 C-0.67 3.35 -0.34 1.7 0 0 Z " fill="#592F0C" transform="translate(104,8)"/>
<path d="M0 0 C8.25 0 16.5 0 25 0 C24.01 1.485 24.01 1.485 23 3 C23.66 3.66 24.32 4.32 25 5 C24.01 5.33 23.02 5.66 22 6 C22 5.34 22 4.68 22 4 C13.30023539 1.57597361 13.30023539 1.57597361 4.9375 3.9375 C3.4834375 4.9584375 3.4834375 4.9584375 2 6 C1.34 5.34 0.68 4.68 0 4 C0 2.68 0 1.36 0 0 Z " fill="#464342" transform="translate(88,0)"/>
<path d="M0 0 C1.32 0.33 2.64 0.66 4 1 C4.33 2.98 4.66 4.96 5 7 C6.65 7 8.3 7 10 7 C10.66 8.32 11.32 9.64 12 11 C7.57225348 12.47591551 4.50156059 11.10908015 0 10 C0 6.7 0 3.4 0 0 Z " fill="#EED08F" transform="translate(70,49)"/>
<path d="M0 0 C0.33 0 0.66 0 1 0 C1 1.65 1 3.3 1 5 C-3.95 6.485 -3.95 6.485 -9 8 C-8.67 9.65 -8.34 11.3 -8 13 C-7.83736266 15.69786649 -7.90967765 18.29032946 -8 21 C-9 22 -9 22 -11.06640625 22.09765625 C-11.89011719 22.08605469 -12.71382813 22.07445313 -13.5625 22.0625 C-14.38878906 22.05347656 -15.21507813 22.04445313 -16.06640625 22.03515625 C-17.02353516 22.01775391 -17.02353516 22.01775391 -18 22 C-18 21.67 -18 21.34 -18 21 C-14.535 20.505 -14.535 20.505 -11 20 C-10.79029441 15.85906302 -10.79029441 15.85906302 -12 12 C-12.039992 10.00039988 -12.04346799 7.99952758 -12 6 C-10.73160474 5.49384702 -9.46016898 4.99530901 -8.1875 4.5 C-7.12595703 4.08234375 -7.12595703 4.08234375 -6.04296875 3.65625 C-4 3 -4 3 -1 3 C-0.67 2.01 -0.34 1.02 0 0 Z " fill="#3C2F1F" transform="translate(84,16)"/>
<path d="M0 0 C3.625 0.375 3.625 0.375 7 1 C7.66 2.65 8.32 4.3 9 6 C5.12315913 7.19287411 2.08378077 8 -2 8 C-2.125 5.125 -2.125 5.125 -2 2 C-1.34 1.34 -0.68 0.68 0 0 Z " fill="#A38B5D" transform="translate(89,34)"/>
<path d="M0 0 C1.65 0 3.3 0 5 0 C5.66 0.66 6.32 1.32 7 2 C6.75082658 6.48512164 4.68797785 9.4974834 2 13 C1.34 13 0.68 13 0 13 C0 8.71 0 4.42 0 0 Z " fill="#B8A572" transform="translate(98,3)"/>
<path d="M0 0 C0.33 0.66 0.66 1.32 1 2 C3.76276177 1.47731534 6.3260876 0.89130413 9 0 C11.48046875 0.99609375 11.48046875 0.99609375 14.1875 2.4375 C15.08855469 2.91058594 15.98960938 3.38367187 16.91796875 3.87109375 C17.60503906 4.24363281 18.29210937 4.61617187 19 5 C19 5.66 19 6.32 19 7 C18.21625 6.67 17.4325 6.34 16.625 6 C14.15667503 4.88133489 14.15667503 4.88133489 12 5 C11.01 5.5259375 11.01 5.5259375 10 6.0625 C9.34 6.371875 8.68 6.68125 8 7 C7.34 6.67 6.68 6.34 6 6 C6 5.01 6 4.02 6 3 C4.02 3.33 2.04 3.66 0 4 C0 5.65 0 7.3 0 9 C-0.33 9 -0.66 9 -1 9 C-1.09765625 2.84765625 -1.09765625 2.84765625 -1 1 C-0.67 0.67 -0.34 0.34 0 0 Z " fill="#927E4E" transform="translate(45,55)"/>
<path d="M0 0 C2.31 0 4.62 0 7 0 C7 0.33 7 0.66 7 1 C5.35 1 3.7 1 2 1 C2 1.66 2 2.32 2 3 C2.66 3 3.32 3 4 3 C3.67 5.31 3.34 7.62 3 10 C2.21625 10.28875 1.4325 10.5775 0.625 10.875 C-2.09671632 11.84912254 -2.09671632 11.84912254 -4 14 C-4.33 13.34 -4.66 12.68 -5 12 C-5.99 12 -6.98 12 -8 12 C-8 11.01 -8 10.02 -8 9 C-6.68 8.67 -5.36 8.34 -4 8 C-5.32 6.02 -6.64 4.04 -8 2 C-5.625 2.6875 -5.625 2.6875 -3 4 C-1.6875 6.625 -1.6875 6.625 -1 9 C-0.01 9 0.98 9 2 9 C1.67 8.2575 1.34 7.515 1 6.75 C0 4 0 4 0 0 Z " fill="#886B1E" transform="translate(72,60)"/>
<path d="M0 0 C0.66 0.33 1.32 0.66 2 1 C-0.04058832 3.64076135 -1.05938224 4.01187645 -4.4375 4.6875 C-8.38287906 6.1410607 -8.68406607 6.56177177 -10.4375 10.125 C-10.98253928 11.40664048 -11.5116481 12.69570611 -12 14 C-12.33 14 -12.66 14 -13 14 C-13.05395478 12.37536158 -13.09277195 10.75021459 -13.125 9.125 C-13.14820313 8.22007813 -13.17140625 7.31515625 -13.1953125 6.3828125 C-13 4 -13 4 -11 2 C-8.65234375 1.62109375 -8.65234375 1.62109375 -5.9375 1.4375 C-2.66160436 1.46018047 -2.66160436 1.46018047 0 0 Z " fill="#6D6B5F" transform="translate(77,86)"/>
<path d="M0 0 C0 1.65 0 3.3 0 5 C-4.1205746 6.99785435 -7.45194365 7.17835515 -12 7 C-12 6.34 -12 5.68 -12 5 C-11.34 5 -10.68 5 -10 5 C-10 4.34 -10 3.68 -10 3 C-10.66 2.67 -11.32 2.34 -12 2 C-10.7625 1.67 -9.525 1.34 -8.25 1 C-7.55390625 0.814375 -6.8578125 0.62875 -6.140625 0.4375 C-4 0 -4 0 0 0 Z " fill="#9F8B54" transform="translate(118,33)"/>
<path d="M0 0 C1.98 0 3.96 0 6 0 C5.69191406 0.56460938 5.38382813 1.12921875 5.06640625 1.7109375 C3.98266032 4.03721997 3.43713337 6.11423735 2.9375 8.625 C2.46377026 10.98190335 2.07671842 12.84656316 1 15 C-0.98 14.34 -2.96 13.68 -5 13 C-4.34 11.68 -3.68 10.36 -3 9 C-1.68 9 -0.36 9 1 9 C1.33 6.69 1.66 4.38 2 2 C1.34 2 0.68 2 0 2 C0 1.34 0 0.68 0 0 Z " fill="#8A5C23" transform="translate(74,61)"/>
<path d="M0 0 C1.54571278 2.31856917 2.79618552 4.50638429 4 7 C2 9 2 9 -1.2578125 9.1953125 C-2.53398438 9.17210937 -3.81015625 9.14890625 -5.125 9.125 C-7.04699219 9.09792969 -7.04699219 9.09792969 -9.0078125 9.0703125 C-10.48894531 9.03550781 -10.48894531 9.03550781 -12 9 C-12.33 9.66 -12.66 10.32 -13 11 C-13 10.01 -13 9.02 -13 8 C-10.03 8 -7.06 8 -4 8 C-4.33 6.35 -4.66 4.7 -5 3 C-3.35 2.67 -1.7 2.34 0 2 C0 1.34 0 0.68 0 0 Z " fill="#67503B" transform="translate(102,41)"/>
<path d="M0 0 C1.32 0 2.64 0 4 0 C4 0.99 4 1.98 4 3 C4.66 3.33 5.32 3.66 6 4 C5.34 4 4.68 4 4 4 C4 5.32 4 6.64 4 8 C2.35 7.67 0.7 7.34 -1 7 C-0.67 8.65 -0.34 10.3 0 12 C-2.0343459 10.58480285 -2.90410393 9.45017877 -3.421875 7.01953125 C-3.66273952 5.01823046 -3.83532741 3.0090056 -4 1 C-2.68 1.33 -1.36 1.66 0 2 C0 1.34 0 0.68 0 0 Z " fill="#5B422C" transform="translate(48,99)"/>
<path d="M0 0 C0.66 0.33 1.32 0.66 2 1 C2.25 3.25 2.25 3.25 2 6 C0 8.3125 0 8.3125 -2 10 C-1.1028125 9.505 -1.1028125 9.505 -0.1875 9 C2 8 2 8 5 8 C4.67 9.65 4.34 11.3 4 13 C1.36 13 -1.28 13 -4 13 C-4.33 12.01 -4.66 11.02 -5 10 C-4.04454013 8.21647491 -3.08287713 6.43283907 -2.0078125 4.71875 C-0.8384198 2.86038059 -0.8384198 2.86038059 0 0 Z " fill="#9C7C4A" transform="translate(81,57)"/>
<path d="M0 0 C0.33 0.99 0.66 1.98 1 3 C3.50447516 4.21869929 3.50447516 4.21869929 6 5 C6 5.66 6 6.32 6 7 C4.02 7.33 2.04 7.66 0 8 C0 7.34 0 6.68 0 6 C-3.67420866 6.30618405 -4.78135513 6.75771784 -7.3125 9.5625 C-7.869375 10.366875 -8.42625 11.17125 -9 12 C-9.66 11.67 -10.32 11.34 -11 11 C-9.5359872 8.15618752 -8.02924807 5.48019208 -6 3 C-2.6875 2 -2.6875 2 0 2 C0 1.34 0 0.68 0 0 Z " fill="#403525" transform="translate(64,38)"/>
<path d="M0 0 C0.66 0.66 1.32 1.32 2 2 C4.44012949 2.24287489 4.44012949 2.24287489 7.125 2.125 C8.03507812 2.10695312 8.94515625 2.08890625 9.8828125 2.0703125 C10.58148438 2.04710937 11.28015625 2.02390625 12 2 C12 3.32 12 4.64 12 6 C9.03 6 6.06 6 3 6 C3.33 7.98 3.66 9.96 4 12 C3.34 12 2.68 12 2 12 C1.855625 10.948125 1.71125 9.89625 1.5625 8.8125 C1.12473034 5.84539451 0.62195134 2.93205634 0 0 Z " fill="#98875E" transform="translate(86,43)"/>
<path d="M0 0 C0.33 0 0.66 0 1 0 C1.375 3.1875 1.375 3.1875 1 7 C-1.5625 9.4375 -1.5625 9.4375 -3.19921875 10.6015625 C-6.6066643 13.24769158 -9.23760629 16.70637672 -12 20 C-12.66 19.01 -13.32 18.02 -14 17 C-13.0479279 15.99403703 -12.08812654 14.99538437 -11.125 14 C-10.32449219 13.1646875 -10.32449219 13.1646875 -9.5078125 12.3125 C-8 11 -8 11 -6 11 C-5.34 9.35 -4.68 7.7 -4 6 C-3.01 6 -2.02 6 -1 6 C-0.67 4.02 -0.34 2.04 0 0 Z " fill="#373328" transform="translate(62,100)"/>
<path d="M0 0 C2.97 0.33 5.94 0.66 9 1 C5.11327187 4.18005028 1.10047867 7.10554447 -3 10 C-3.625 7.6875 -3.625 7.6875 -4 5 C-3.34 4.01 -2.68 3.02 -2 2 C-1.34 2 -0.68 2 0 2 C0 1.34 0 0.68 0 0 Z " fill="#4C3F36" transform="translate(11,85)"/>
<path d="M0 0 C4.62 0 9.24 0 14 0 C14 0.33 14 0.66 14 1 C8.06 1.495 8.06 1.495 2 2 C2 6.29 2 10.58 2 15 C1.01 15.33 0.02 15.66 -1 16 C-0.67 10.72 -0.34 5.44 0 0 Z " fill="#3C3013" transform="translate(90,50)"/>
<path d="M0 0 C5.75 2.625 5.75 2.625 8 6 C8.165 7.010625 8.33 8.02125 8.5 9.0625 C8.72793454 12.11355373 8.72793454 12.11355373 11 14 C10.67 14.99 10.34 15.98 10 17 C10 16.34 10 15.68 10 15 C9.01 14.67 8.02 14.34 7 14 C4.8125 12.375 4.8125 12.375 3 10 C2.75 6.25 2.75 6.25 3 3 C1.68 3 0.36 3 -1 3 C-0.67 2.01 -0.34 1.02 0 0 Z " fill="#AC9252" transform="translate(78,43)"/>
<path d="M0 0 C0.53625 0.2475 1.0725 0.495 1.625 0.75 C-5.125 4.75 -5.125 4.75 -7.375 4.75 C-7.375 8.38 -7.375 12.01 -7.375 15.75 C-8.365 15.75 -9.355 15.75 -10.375 15.75 C-10.375 16.41 -10.375 17.07 -10.375 17.75 C-12.025 17.42 -13.675 17.09 -15.375 16.75 C-12.375 14.75 -12.375 14.75 -10.375 13.75 C-10.06162316 12.15700105 -9.82317965 10.54888931 -9.625 8.9375 C-8.89412638 4.88869218 -8.63836328 3.99618742 -5.5 1.0625 C-2.375 -0.25 -2.375 -0.25 0 0 Z " fill="#40372C" transform="translate(50.375,51.25)"/>
<path d="M0 0 C0.66 0.33 1.32 0.66 2 1 C2 1.66 2 2.32 2 3 C3.79232337 2.69128878 5.58384321 2.37790936 7.375 2.0625 C8.37273437 1.88847656 9.37046875 1.71445313 10.3984375 1.53515625 C12.96909656 1.12287938 12.96909656 1.12287938 15 0 C14.67 1.65 14.34 3.3 14 5 C9.38 5.33 4.76 5.66 0 6 C0 4 0 2 0 0 Z " fill="#403820" transform="translate(62,83)"/>
<path d="M0 0 C2 2 2 2 2.1953125 3.9453125 C2.13020833 5.96354167 2.06510417 7.98177083 2 10 C-1.5786304 8.34832443 -4.74820188 6.21713508 -8 4 C-7.67 3.34 -7.34 2.68 -7 2 C-4.69 2 -2.38 2 0 2 C0 1.34 0 0.68 0 0 Z " fill="#946F40" transform="translate(42,78)"/>
<path d="M0 0 C1.32 0.33 2.64 0.66 4 1 C2.515 2.485 2.515 2.485 1 4 C1.61875 4.103125 2.2375 4.20625 2.875 4.3125 C5 5 5 5 7 8 C6.67 8.99 6.34 9.98 6 11 C2.65980694 10.40353695 0.49529367 9.31705841 -2 7 C-2 6.01 -2 5.02 -2 4 C-1.34 4 -0.68 4 0 4 C0 2.68 0 1.36 0 0 Z " fill="#CAB94E" transform="translate(90,20)"/>
<path d="M0 0 C0.33 0.99 0.66 1.98 1 3 C0.67 3.66 0.34 4.32 0 5 C-0.66 5 -1.32 5 -2 5 C-2 5.66 -2 6.32 -2 7 C-5.63 7 -9.26 7 -13 7 C-13 6.67 -13 6.34 -13 6 C-11.35 6 -9.7 6 -8 6 C-7.67 4.35 -7.34 2.7 -7 1 C-5.5459375 1.0309375 -5.5459375 1.0309375 -4.0625 1.0625 C-1.12534105 1.35618499 -1.12534105 1.35618499 0 0 Z " fill="#262213" transform="translate(48,118)"/>
<path d="M0 0 C0 0.66 0 1.32 0 2 C-1.65 2.66 -3.3 3.32 -5 4 C-2.525 4.99 -2.525 4.99 0 6 C-0.66 6.66 -1.32 7.32 -2 8 C-4.625 7.625 -4.625 7.625 -7 7 C-7 6.34 -7 5.68 -7 5 C-8.32 5 -9.64 5 -11 5 C-10 2 -10 2 -7.75 0.8125 C-5.00208853 0.00061706 -2.84552111 -0.16260121 0 0 Z " fill="#8E7B5E" transform="translate(31,73)"/>
<path d="M0 0 C0.33 0 0.66 0 1 0 C1.33 3.96 1.66 7.92 2 12 C1.34 12 0.68 12 0 12 C0 12.66 0 13.32 0 14 C0.99 14.33 1.98 14.66 3 15 C-2.41538462 17.21538462 -2.41538462 17.21538462 -5.375 16.125 C-5.91125 15.75375 -6.4475 15.3825 -7 15 C-7 14.34 -7 13.68 -7 13 C-5.68 13 -4.36 13 -3 13 C-3 12.34 -3 11.68 -3 11 C-2.01 11 -1.02 11 0 11 C0 7.37 0 3.74 0 0 Z " fill="#615743" transform="translate(43,56)"/>
<path d="M0 0 C0.99 0 1.98 0 3 0 C3.33 0.99 3.66 1.98 4 3 C6.31808364 4.03485877 8.65175298 5.0355414 11 6 C11.33 6.66 11.66 7.32 12 8 C10.02 8.33 8.04 8.66 6 9 C6 8.34 6 7.68 6 7 C4.8553125 6.5978125 4.8553125 6.5978125 3.6875 6.1875 C1.12619116 5.05575888 -0.19692938 4.08776599 -2 2 C-1.34 2 -0.68 2 0 2 C0 1.34 0 0.68 0 0 Z " fill="#F5E7A6" transform="translate(58,53)"/>
<path d="M0 0 C2.64 0.33 5.28 0.66 8 1 C7.67 1.99 7.34 2.98 7 4 C8.32 4 9.64 4 11 4 C11.33 5.65 11.66 7.3 12 9 C11.01 8.67 10.02 8.34 9 8 C8.67 7.34 8.34 6.68 8 6 C7.01 5.67 6.02 5.34 5 5 C4.01 6.485 4.01 6.485 3 8 C3 7.34 3 6.68 3 6 C2.34 5.67 1.68 5.34 1 5 C1.33 4.34 1.66 3.68 2 3 C1.34 3 0.68 3 0 3 C0 2.01 0 1.02 0 0 Z " fill="#907442" transform="translate(70,42)"/>
<path d="M0 0 C0.33 0.66 0.66 1.32 1 2 C1.99 2 2.98 2 4 2 C4 3.32 4 4.64 4 6 C3.34 6 2.68 6 2 6 C2 6.99 2 7.98 2 9 C-1.63 8.34 -5.26 7.68 -9 7 C-8.67 6.01 -8.34 5.02 -8 4 C-4.7 4.33 -1.4 4.66 2 5 C2 4.34 2 3.68 2 3 C1.34 3 0.68 3 0 3 C0 2.01 0 1.02 0 0 Z " fill="#A68555" transform="translate(86,18)"/>
<path d="M0 0 C2.41926039 0.06018061 4.83248672 0.14722217 7.25 0.25 C7.93191406 0.26417969 8.61382812 0.27835937 9.31640625 0.29296875 C12.87112206 0.46552777 14.70213559 0.7545897 17.484375 3.046875 C18.23460937 4.01367188 18.23460937 4.01367188 19 5 C18.01 5 17.02 5 16 5 C15.67 5.66 15.34 6.32 15 7 C15 6.34 15 5.68 15 5 C11.77403651 4.14742393 8.53416312 3.5239577 5.25 2.9375 C4.26515625 2.76089844 3.2803125 2.58429688 2.265625 2.40234375 C1.14414063 2.20318359 1.14414063 2.20318359 0 2 C0 1.34 0 0.68 0 0 Z " fill="#8B7C5E" transform="translate(12,84)"/>
<path d="M0 0 C0.5775 0.639375 1.155 1.27875 1.75 1.9375 C3.98062401 3.98223868 5.07436391 4.58205199 8 5 C8 6.32 8 7.64 8 9 C5.69 9.33 3.38 9.66 1 10 C0.87625 9.21625 0.7525 8.4325 0.625 7.625 C0.20882007 4.85942178 0.20882007 4.85942178 -2 3 C-1.34 2.01 -0.68 1.02 0 0 Z " fill="#817140" transform="translate(63,76)"/>
<path d="M0 0 C0.99 0.66 1.98 1.32 3 2 C3 3.32 3 4.64 3 6 C3.66 6 4.32 6 5 6 C5.125 9.375 5.125 9.375 5 13 C4.34 13.66 3.68 14.32 3 15 C2.16094435 13.87926138 1.32892169 12.75325453 0.5 11.625 C-0.19609375 10.68527344 -0.19609375 10.68527344 -0.90625 9.7265625 C-2 8 -2 8 -2 6 C0 6 0 6 1.625 7.5 C2.07875 7.995 2.5325 8.49 3 9 C2.505 8.071875 2.01 7.14375 1.5 6.1875 C0 3 0 3 0 0 Z " fill="#846C29" transform="translate(85,49)"/>
<path d="M0 0 C3.34373475 0.55728913 6.03312999 1.35173889 9 3 C9 3.99 9 4.98 9 6 C3.375 6.25 3.375 6.25 0 4 C0 2.68 0 1.36 0 0 Z " fill="#5A461B" transform="translate(64,75)"/>
<path d="M0 0 C3.27481575 0.97359387 4.76205109 1.69066641 6.875 4.4375 C8 7 8 7 7 10 C7 9.34 7 8.68 7 8 C4.69 7.67 2.38 7.34 0 7 C0 4.69 0 2.38 0 0 Z " fill="#7F3F14" transform="translate(74,46)"/>
<path d="M0 0 C2.3828125 -0.29296875 2.3828125 -0.29296875 5.125 -0.1875 C6.03507812 -0.16042969 6.94515625 -0.13335937 7.8828125 -0.10546875 C8.58148438 -0.07066406 9.28015625 -0.03585938 10 0 C10 0.66 10 1.32 10 2 C10.66 2.66 11.32 3.32 12 4 C8.8787889 5.00324642 7.11668059 4.91667076 4 4 C2.00211562 3.65421232 0.00240549 3.31856451 -2 3 C-1.34 2.01 -0.68 1.02 0 0 Z " fill="#B49F68" transform="translate(66,39)"/>
<path d="M0 0 C1.32 0.33 2.64 0.66 4 1 C4 1.66 4 2.32 4 3 C3.34 3 2.68 3 2 3 C2 3.66 2 4.32 2 5 C6.455 4.505 6.455 4.505 11 4 C10.34 5.65 9.68 7.3 9 9 C8.67 8.34 8.34 7.68 8 7 C7.0925 7.0825 6.185 7.165 5.25 7.25 C2 7 2 7 -0.375 5 C-0.91125 4.34 -1.4475 3.68 -2 3 C-1.34 2.67 -0.68 2.34 0 2 C0 1.34 0 0.68 0 0 Z " fill="#806734" transform="translate(104,35)"/>
<path d="M0 0 C1.65 1.65 3.3 3.3 5 5 C4.01 6.485 4.01 6.485 3 8 C2.01 8 1.02 8 0 8 C0 7.01 0 6.02 0 5 C0.66 5 1.32 5 2 5 C2 4.34 2 3.68 2 3 C1.01 3.66 0.02 4.32 -1 5 C-3.6875 4.625 -3.6875 4.625 -6 4 C-4.60804085 1.2160817 -2.84424221 1.02101003 0 0 Z " fill="#6D5523" transform="translate(52,74)"/>
<path d="M0 0 C4.26672384 0.47408043 6.2455048 2.88307122 9 6 C10.3125 8.3125 10.3125 8.3125 11 10 C8 12 8 12 4 12 C4 11.34 4 10.68 4 10 C5.32 10 6.64 10 8 10 C7.20882096 8.00016466 7.20882096 8.00016466 6 6 C5.01 5.67 4.02 5.34 3 5 C1.3125 3.5625 1.3125 3.5625 0 2 C0 1.34 0 0.68 0 0 Z " fill="#7B5C33" transform="translate(90,30)"/>
<path d="M0 0 C-0.33 1.65 -0.66 3.3 -1 5 C-3.97 5 -6.94 5 -10 5 C-10 4.01 -10 3.02 -10 2 C-8.71211992 1.46987262 -7.41953322 0.9511671 -6.125 0.4375 C-5.40570313 0.14746094 -4.68640625 -0.14257812 -3.9453125 -0.44140625 C-2 -1 -2 -1 0 0 Z " fill="#696660" transform="translate(74,32)"/>
<path d="M0 0 C0.66 0.33 1.32 0.66 2 1 C1.566875 2.051875 1.566875 2.051875 1.125 3.125 C-0.02133588 6.05452503 -1.02625654 9.00921653 -2 12 C-3.98 12.33 -5.96 12.66 -8 13 C-5.51373626 6.28708791 -5.51373626 6.28708791 -2.875 4.8125 C-2.25625 4.544375 -1.6375 4.27625 -1 4 C-0.19471111 1.94999129 -0.19471111 1.94999129 0 0 Z " fill="#514C45" transform="translate(121,35)"/>
<path d="M0 0 C0 1.98 0 3.96 0 6 C-2.31 6 -4.62 6 -7 6 C-6.67 4.02 -6.34 2.04 -6 0 C-3 -1 -3 -1 0 0 Z " fill="#444443" transform="translate(128,122)"/>
<path d="M0 0 C0.66 0 1.32 0 2 0 C1.22095672 11.52164009 1.22095672 11.52164009 -1 17 C-1.33 17 -1.66 17 -2 17 C-2.05418326 14.91695462 -2.09287551 12.83350232 -2.125 10.75 C-2.14820313 9.58984375 -2.17140625 8.4296875 -2.1953125 7.234375 C-2.0103949 4.17213954 -1.60823023 2.55797249 0 0 Z " fill="#1F1B16" transform="translate(63,88)"/>
<path d="M0 0 C0.66 0 1.32 0 2 0 C3.96189209 3.6678852 5.39301257 6.87248551 6 11 C5.360625 11.12375 4.72125 11.2475 4.0625 11.375 C3.381875 11.58125 2.70125 11.7875 2 12 C1.67 12.66 1.34 13.32 1 14 C1.33 10.7 1.66 7.4 2 4 C1.34 4 0.68 4 0 4 C0 2.68 0 1.36 0 0 Z " fill="#372413" transform="translate(116,13)"/>
<path d="M0 0 C3.37462715 0.54723683 5.08235 1.0549 8 3 C8 3.66 8 4.32 8 5 C5.6739143 5.38063221 3.33944736 5.71269945 1 6 C0 5 0 5 -0.0625 2.4375 C-0.041875 1.633125 -0.02125 0.82875 0 0 Z " fill="#EDD99F" transform="translate(34,75)"/>
<path d="M0 0 C0.99 0.33 1.98 0.66 3 1 C3 2.98 3 4.96 3 7 C5.47266765 6.65555119 5.47266765 6.65555119 8 6 C8.33 5.34 8.66 4.68 9 4 C9.33 5.32 9.66 6.64 10 8 C7.36 8.33 4.72 8.66 2 9 C-2 3.25 -2 3.25 -2 1 C-1.34 0.67 -0.68 0.34 0 0 Z " fill="#774F1E" transform="translate(48,89)"/>
<path d="M0 0 C1.875 0.25 1.875 0.25 4 1 C4.6837045 2.32467746 5.34964186 3.65863633 6 5 C8.0335948 6.26804566 8.0335948 6.26804566 10 7 C9.01 7.99 8.02 8.98 7 10 C5.82739389 8.71372289 4.6620717 7.42080217 3.5 6.125 C2.8503125 5.40570313 2.200625 4.68640625 1.53125 3.9453125 C0 2 0 2 0 0 Z " fill="#BDAA59" transform="translate(35,87)"/>
<path d="M0 0 C1.1725131 0.95117134 2.33787015 1.91117009 3.5 2.875 C4.47453125 3.67550781 4.47453125 3.67550781 5.46875 4.4921875 C5.9740625 4.98976563 6.479375 5.48734375 7 6 C7 6.66 7 7.32 7 8 C4.69 8 2.38 8 0 8 C0 5.36 0 2.72 0 0 Z " fill="#F6E5A5" transform="translate(44,80)"/>
<path d="M0 0 C0 2.31 0 4.62 0 7 C-2.375 7.1875 -2.375 7.1875 -5 7 C-5.66 6.01 -6.32 5.02 -7 4 C-3.375 0 -3.375 0 0 0 Z " fill="#8E5F28" transform="translate(69,50)"/>
<path d="M0 0 C0 2.31 0 4.62 0 7 C-0.99 7 -1.98 7 -3 7 C-3 7.66 -3 8.32 -3 9 C-3.66 9 -4.32 9 -5 9 C-4.67 7.35 -4.34 5.7 -4 4 C-4.66 4 -5.32 4 -6 4 C-5.67 3.01 -5.34 2.02 -5 1 C-2 0 -2 0 0 0 Z " fill="#E0AF22" transform="translate(111,23)"/>
<path d="M0 0 C3.32856495 1.16949579 5.9142809 2.07999325 8 5 C8.36628677 6.99422795 8.70131344 8.99453311 9 11 C9.66 11.66 10.32 12.32 11 13 C11.125 15.625 11.125 15.625 11 18 C10.731875 17.4225 10.46375 16.845 10.1875 16.25 C9.07929215 14.00248161 9.07929215 14.00248161 7.625 12.1875 C5.45679135 9.26875758 3.78600221 6.1687136 2 3 C1.34 2.01 0.68 1.02 0 0 Z " fill="#473E37" transform="translate(112,6)"/>
<path d="M0 0 C1.70884005 1.62339805 3.37446717 3.29319053 5 5 C5 5.66 5 6.32 5 7 C2.36 6.67 -0.28 6.34 -3 6 C-3.33 5.01 -3.66 4.02 -4 3 C-2.68 2.67 -1.36 2.34 0 2 C0 1.34 0 0.68 0 0 Z " fill="#F3E59A" transform="translate(37,91)"/>
<path d="M0 0 C4 4.5 4 4.5 4 9 C3.01 9 2.02 9 1 9 C0.731875 8.195625 0.46375 7.39125 0.1875 6.5625 C-0.204375 5.716875 -0.59625 4.87125 -1 4 C-1.99 3.67 -2.98 3.34 -4 3 C-2.68 2.01 -1.36 1.02 0 0 Z " fill="#ECD38A" transform="translate(70,60)"/>
<path d="M0 0 C0.66 0 1.32 0 2 0 C2.33 2.31 2.66 4.62 3 7 C1.02 7.66 -0.96 8.32 -3 9 C-3 7.68 -3 6.36 -3 5 C-2.34 4.67 -1.68 4.34 -1 4 C-0.34786708 1.97536745 -0.34786708 1.97536745 0 0 Z " fill="#7C6A59" transform="translate(52,103)"/>
<path d="M0 0 C0.99 0.33 1.98 0.66 3 1 C3.33 3.97 3.66 6.94 4 10 C2.68 10 1.36 10 0 10 C0 6.7 0 3.4 0 0 Z " fill="#FBF6B6" transform="translate(70,49)"/>
<path d="M0 0 C5.79782471 2.44573251 9.28685474 4.89442527 13 10 C9.45086418 10 9.02411922 9.43877595 6.5 7.125 C4.36847741 5.18980185 2.41496646 3.60997764 0 2 C0 1.34 0 0.68 0 0 Z " fill="#CFBB80" transform="translate(56,58)"/>
<path d="M0 0 C1.32 0 2.64 0 4 0 C4 0.99 4 1.98 4 3 C4.99 3.33 5.98 3.66 7 4 C7 4.66 7 5.32 7 6 C6.34 6 5.68 6 5 6 C4.67 6.66 4.34 7.32 4 8 C1 6 1 6 0.3125 2.875 C0.209375 1.92625 0.10625 0.9775 0 0 Z " fill="#746246" transform="translate(47,58)"/>
<path d="M0 0 C-1.28965176 1.37562854 -2.62689293 2.70766393 -4 4 C-4.66 4 -5.32 4 -6 4 C-6 4.66 -6 5.32 -6 6 C-6.66 6 -7.32 6 -8 6 C-8 6.66 -8 7.32 -8 8 C-8.66 7.67 -9.32 7.34 -10 7 C-9.02640613 3.72518425 -8.30933359 2.23794891 -5.5625 0.125 C-3 -1 -3 -1 0 0 Z " fill="#302312" transform="translate(99,3)"/>
<path d="M0 0 C3 1 3 1 4.25 2.75 C5.17574966 5.52724898 4.77341204 7.21571665 4 10 C2.29115995 8.37660195 0.62553283 6.70680947 -1 5 C-1 4.34 -1 3.68 -1 3 C-0.34 3 0.32 3 1 3 C0.67 2.01 0.34 1.02 0 0 Z " fill="#503D12" transform="translate(52,82)"/>
<path d="M0 0 C1.32 0 2.64 0 4 0 C3.34 1.65 2.68 3.3 2 5 C2.99 5.66 3.98 6.32 5 7 C3.1875 7.625 3.1875 7.625 1 8 C0.01 7.34 -0.98 6.68 -2 6 C-1.34 6 -0.68 6 0 6 C0 5.34 0 4.68 0 4 C-0.99 3.67 -1.98 3.34 -3 3 C-2.34 3 -1.68 3 -1 3 C-0.67 2.01 -0.34 1.02 0 0 Z " fill="#CBAB74" transform="translate(61,49)"/>
<path d="M0 0 C0.33 0 0.66 0 1 0 C1 2.31 1 4.62 1 7 C0.0409375 7.37125 0.0409375 7.37125 -0.9375 7.75 C-3.18741541 8.81562433 -3.18741541 8.81562433 -3.75 11.125 C-3.8325 11.74375 -3.915 12.3625 -4 13 C-4.66 13 -5.32 13 -6 13 C-5.75 10.1875 -5.75 10.1875 -5 7 C-3 5.375 -3 5.375 -1 4 C-0.20376178 1.90584196 -0.20376178 1.90584196 0 0 Z " fill="#271C0C" transform="translate(119,33)"/>
<path d="M0 0 C1.65 0.99 3.3 1.98 5 3 C4.01 3.495 4.01 3.495 3 4 C3 4.99 3 5.98 3 7 C2.34 7 1.68 7 1 7 C1 6.01 1 5.02 1 4 C0.34 4 -0.32 4 -1 4 C-1 6.31 -1 8.62 -1 11 C-1.66 11 -2.32 11 -3 11 C-2.25 3.375 -2.25 3.375 0 0 Z " fill="#937847" transform="translate(84,25)"/>
<path d="M0 0 C0.66 0.33 1.32 0.66 2 1 C1.2884375 1.804375 1.2884375 1.804375 0.5625 2.625 C-1.28186076 5.42842836 -1.62456847 7.69620258 -2 11 C-3.5625 9.75 -3.5625 9.75 -5 8 C-4.90311287 4.99649894 -3.98152289 3.97984316 -1.9375 1.75 C-1.298125 1.1725 -0.65875 0.595 0 0 Z " fill="#44372B" transform="translate(13,90)"/>
<path d="M0 0 C1.32 0.66 2.64 1.32 4 2 C3.67 2.33 3.34 2.66 3 3 C3.99 3.99 4.98 4.98 6 6 C5.01 7.485 5.01 7.485 4 9 C3.34 8.34 2.68 7.68 2 7 C1.34 6.67 0.68 6.34 0 6 C0 5.34 0 4.68 0 4 C-0.66 3.67 -1.32 3.34 -2 3 C-1.34 3 -0.68 3 0 3 C0 2.01 0 1.02 0 0 Z " fill="#B39B57" transform="translate(96,28)"/>
<path d="M0 0 C0.33 0.66 0.66 1.32 1 2 C2.98 2 4.96 2 7 2 C6.67 3.98 6.34 5.96 6 8 C2.83884224 6.63016497 2.0072908 6.0109362 0 3 C0 2.01 0 1.02 0 0 Z " fill="#70350E" transform="translate(108,11)"/>
<path d="M0 0 C-0.9520721 1.00596297 -1.91187346 2.00461563 -2.875 3 C-3.40867187 3.556875 -3.94234375 4.11375 -4.4921875 4.6875 C-6 6 -6 6 -8 6 C-8 4.02 -8 2.04 -8 0 C-4.71303767 -0.79953138 -3.28976808 -1.09658936 0 0 Z " fill="#625E51" transform="translate(54,112)"/>
<path d="M0 0 C0.99 0.33 1.98 0.66 3 1 C3.6875 3.8125 3.6875 3.8125 4 7 C2.5625 8.875 2.5625 8.875 1 10 C0 9 0 9 -0.09765625 6.93359375 C-0.08605469 6.10988281 -0.07445312 5.28617187 -0.0625 4.4375 C-0.05347656 3.61121094 -0.04445312 2.78492187 -0.03515625 1.93359375 C-0.02355469 1.29550781 -0.01195312 0.65742187 0 0 Z " fill="#B09C41" transform="translate(60,69)"/>
<path d="M0 0 C0 1.98 0 3.96 0 6 C-0.33 5.34 -0.66 4.68 -1 4 C-1.598125 4.33 -2.19625 4.66 -2.8125 5 C-5 6 -5 6 -8 6 C-6.98565881 3.46414701 -6.34981128 2.21863205 -4 0.75 C-2 0 -2 0 0 0 Z " fill="#86672D" transform="translate(87,61)"/>
<path d="M0 0 C0.99 0 1.98 0 3 0 C3 0.66 3 1.32 3 2 C3.99 2 4.98 2 6 2 C6 2.99 6 3.98 6 5 C3.69 5 1.38 5 -1 5 C-1 1 -1 1 0 0 Z " fill="#B3A16E" transform="translate(89,34)"/>
<path d="M0 0 C1.9375 0.3125 1.9375 0.3125 4 1 C4.33 1.99 4.66 2.98 5 4 C2.625 5.0625 2.625 5.0625 0 6 C-0.66 5.67 -1.32 5.34 -2 5 C-2 4.01 -2 3.02 -2 2 C-1.34 2 -0.68 2 0 2 C0 1.34 0 0.68 0 0 Z " fill="#C77F12" transform="translate(106,19)"/>
<path d="M0 0 C0.66 0.99 1.32 1.98 2 3 C2.99 3 3.98 3 5 3 C5.33 2.34 5.66 1.68 6 1 C6.33 2.32 6.66 3.64 7 5 C4.36 5.33 1.72 5.66 -1 6 C-1.625 4.125 -1.625 4.125 -2 2 C-1.34 1.34 -0.68 0.68 0 0 Z " fill="#A08646" transform="translate(44,95)"/>
<path d="M0 0 C2.64 0 5.28 0 8 0 C8 0.66 8 1.32 8 2 C7.01 2 6.02 2 5 2 C5 2.66 5 3.32 5 4 C5.66 4 6.32 4 7 4 C6.67 4.99 6.34 5.98 6 7 C5.7525 6.360625 5.505 5.72125 5.25 5.0625 C4.18437567 2.81258459 4.18437567 2.81258459 1.875 2.25 C0.946875 2.12625 0.946875 2.12625 0 2 C0 1.34 0 0.68 0 0 Z " fill="#C6B16A" transform="translate(51,67)"/>
<path d="M0 0 C0 0.66 0 1.32 0 2 C-1.98 2.33 -3.96 2.66 -6 3 C-6 2.34 -6 1.68 -6 1 C-7.32 1 -8.64 1 -10 1 C-10 0.34 -10 -0.32 -10 -1 C-6.06329512 -2.31223496 -3.87511856 -1.24296256 0 0 Z " fill="#6D4E25" transform="translate(70,43)"/>
<path d="M0 0 C1.32 0 2.64 0 4 0 C3.1875 3.4375 3.1875 3.4375 2 7 C1.01 7.33 0.02 7.66 -1 8 C-1.04241723 5.66705225 -1.04092937 3.33297433 -1 1 C-0.67 0.67 -0.34 0.34 0 0 Z " fill="#6A4624" transform="translate(80,25)"/>
<path d="M0 0 C3.98175544 2.10148204 6.35039045 4.36905358 9 8 C7.35 8 5.7 8 4 8 C3.67 7.01 3.34 6.02 3 5 C2.01 4.34 1.02 3.68 0 3 C0 2.01 0 1.02 0 0 Z " fill="#483209" transform="translate(33,98)"/>
<path d="M0 0 C0 0.66 0 1.32 0 2 C-0.66 2 -1.32 2 -2 2 C-2 3.65 -2 5.3 -2 7 C-2.99 6.67 -3.98 6.34 -5 6 C-5 5.34 -5 4.68 -5 4 C-6.32 3.34 -7.64 2.68 -9 2 C-6.13119883 0.56559942 -3.20485087 0 0 0 Z " fill="#BFA66C" transform="translate(54,77)"/>
<path d="M0 0 C0 0.66 0 1.32 0 2 C-2.31 2.66 -4.62 3.32 -7 4 C-7.99 3.01 -8.98 2.02 -10 1 C-3.71428571 -1.42857143 -3.71428571 -1.42857143 0 0 Z " fill="#4C3E28" transform="translate(52,73)"/>
<path d="M0 0 C0.66 0.33 1.32 0.66 2 1 C1.67 1.99 1.34 2.98 1 4 C1.66 4 2.32 4 3 4 C2.67 5.65 2.34 7.3 2 9 C2.66 9 3.32 9 4 9 C3.67 9.99 3.34 10.98 3 12 C2.62875 11.0409375 2.62875 11.0409375 2.25 10.0625 C1.18437567 7.81258459 1.18437567 7.81258459 -1.125 7.25 C-1.74375 7.1675 -2.3625 7.085 -3 7 C-2.01 7 -1.02 7 0 7 C0 4.69 0 2.38 0 0 Z " fill="#B9A379" transform="translate(83,29)"/>
<path d="M0 0 C2 2 2 2 2 5 C1.01 5 0.02 5 -1 5 C-1 4.34 -1 3.68 -1 3 C-1.66 3 -2.32 3 -3 3 C-3 2.34 -3 1.68 -3 1 C-4.32 1.33 -5.64 1.66 -7 2 C-7 1.34 -7 0.68 -7 0 C-3.85179059 -1.04940314 -3.00659136 -1.066855 0 0 Z " fill="#3D1F0E" transform="translate(113,7)"/>
<path d="M0 0 C7 8.44827586 7 8.44827586 7 12 C6.34 12 5.68 12 5 12 C5 11.34 5 10.68 5 10 C4.34 10 3.68 10 3 10 C0.96564469 6.27034861 0 4.33094958 0 0 Z " fill="#2A251B" transform="translate(7,96)"/>
<path d="M0 0 C1.32 1.32 2.64 2.64 4 4 C3.67 4.99 3.34 5.98 3 7 C2.67 6.67 2.34 6.34 2 6 C1.34 6.66 0.68 7.32 0 8 C-1.125 6.25 -1.125 6.25 -2 4 C-1.125 1.75 -1.125 1.75 0 0 Z " fill="#39270A" transform="translate(56,79)"/>
<path d="M0 0 C2.31 0 4.62 0 7 0 C7 0.33 7 0.66 7 1 C5.35 1 3.7 1 2 1 C2 1.66 2 2.32 2 3 C2.66 3 3.32 3 4 3 C3.67 5.31 3.34 7.62 3 10 C2.01 9.67 1.02 9.34 0 9 C0.66 9 1.32 9 2 9 C1.67 8.2575 1.34 7.515 1 6.75 C0 4 0 4 0 0 Z " fill="#B7924D" transform="translate(72,60)"/>
<path d="M0 0 C2.5 1.3125 2.5 1.3125 5 3 C5 3.99 5 4.98 5 6 C4.34 6 3.68 6 3 6 C3.33 7.98 3.66 9.96 4 12 C3.34 12 2.68 12 2 12 C1.855625 10.948125 1.71125 9.89625 1.5625 8.8125 C1.12473034 5.84539451 0.62195134 2.93205634 0 0 Z " fill="#898550" transform="translate(86,43)"/>
<path d="M0 0 C0 0.99 0 1.98 0 3 C-0.99 3.33 -1.98 3.66 -3 4 C-3 4.66 -3 5.32 -3 6 C-4.65 6 -6.3 6 -8 6 C-7.67 4.68 -7.34 3.36 -7 2 C-4.69 1.34 -2.38 0.68 0 0 Z " fill="#DDC996" transform="translate(116,34)"/>
<path d="M0 0 C2.64 1.98 5.28 3.96 8 6 C6.02 6.99 6.02 6.99 4 8 C4 6.68 4 5.36 4 4 C1.69 3.67 -0.62 3.34 -3 3 C-2.01 2.67 -1.02 2.34 0 2 C0 1.34 0 0.68 0 0 Z " fill="#5C481B" transform="translate(28,92)"/>
<path d="M0 0 C1.32 0.33 2.64 0.66 4 1 C1.525 5.455 1.525 5.455 -1 10 C-2.10191901 5.59232396 -1.58706842 4.1077065 0 0 Z " fill="#848378" transform="translate(66,90)"/>
<path d="M0 0 C0 1.98 0 3.96 0 6 C-3.65316671 4.75023244 -4.78065836 4.32901247 -7 1 C-1.125 0 -1.125 0 0 0 Z " fill="#785227" transform="translate(43,81)"/>
<path d="M0 0 C0.66 0.33 1.32 0.66 2 1 C1.04663979 2.31611677 0.08714226 3.62778961 -0.875 4.9375 C-1.40867187 5.66839844 -1.94234375 6.39929688 -2.4921875 7.15234375 C-4 9 -4 9 -6 10 C-4.79157144 5.56909529 -3.48331435 3.01887244 0 0 Z " fill="#828071" transform="translate(85,74)"/>
<path d="M0 0 C0.33 0 0.66 0 1 0 C1.33 3.3 1.66 6.6 2 10 C1.01 10 0.02 10 -1 10 C-1 10.66 -1 11.32 -1 12 C-2.65 11.67 -4.3 11.34 -6 11 C-3 9 -3 9 -1 8 C-0.53476937 6.10466658 -0.53476937 6.10466658 -0.375 3.9375 C-0.25125 2.638125 -0.1275 1.33875 0 0 Z " fill="#413E38" transform="translate(41,57)"/>
<path d="M0 0 C0.66 0 1.32 0 2 0 C2 2.31 2 4.62 2 7 C0.68 7 -0.64 7 -2 7 C-1.125 1.125 -1.125 1.125 0 0 Z " fill="#887B65" transform="translate(58,98)"/>
<path d="M0 0 C2.475 0.99 2.475 0.99 5 2 C4.67 3.32 4.34 4.64 4 6 C1.69 5.34 -0.62 4.68 -3 4 C-2 2 -2 2 0 0 Z " fill="#E2D294" transform="translate(32,81)"/>
<path d="M0 0 C2.31 0.33 4.62 0.66 7 1 C7.33 2.32 7.66 3.64 8 5 C5.03 4.01 2.06 3.02 -1 2 C-0.67 1.34 -0.34 0.68 0 0 Z " fill="#5F3C16" transform="translate(26,76)"/>
<path d="M0 0 C0.33 0 0.66 0 1 0 C1.09765625 6.15234375 1.09765625 6.15234375 1 8 C0 9 0 9 -2.06640625 9.09765625 C-2.89011719 9.08605469 -3.71382813 9.07445312 -4.5625 9.0625 C-5.38878906 9.05347656 -6.21507813 9.04445313 -7.06640625 9.03515625 C-7.70449219 9.02355469 -8.34257813 9.01195312 -9 9 C-9 8.67 -9 8.34 -9 8 C-5.535 7.505 -5.535 7.505 -2 7 C-1.34 4.69 -0.68 2.38 0 0 Z " fill="#473A28" transform="translate(75,29)"/>
<path d="M0 0 C0.33 0.66 0.66 1.32 1 2 C1.99 2.33 2.98 2.66 4 3 C3.8125 5.875 3.8125 5.875 3 9 C0.4375 10.375 0.4375 10.375 -2 11 C-2 10.34 -2 9.68 -2 9 C-1 8 0 7 1 6 C1.33 5.01 1.66 4.02 2 3 C1.34 3 0.68 3 0 3 C0 2.01 0 1.02 0 0 Z " fill="#9A7333" transform="translate(114,16)"/>
<path d="M0 0 C0.99 0 1.98 0 3 0 C3 2.64 3 5.28 3 8 C3.66 8.33 4.32 8.66 5 9 C4.01 9.33 3.02 9.66 2 10 C0.68373308 6.38026598 0 3.90432869 0 0 Z " fill="#AE894A" transform="translate(94,8)"/>
<path d="M0 0 C0 3.96 0 7.92 0 12 C-0.33 12 -0.66 12 -1 12 C-1.33 9.69 -1.66 7.38 -2 5 C-2.99 5.66 -3.98 6.32 -5 7 C-5 5.68 -5 4.36 -5 3 C-1.67857143 -0 -1.67857143 -0 0 0 Z " fill="#7D6536" transform="translate(98,4)"/>
<path d="M0 0 C2.475 0.99 2.475 0.99 5 2 C5 3.32 5 4.64 5 6 C1.83884224 4.63016497 1.0072908 4.0109362 -1 1 C-0.67 0.67 -0.34 0.34 0 0 Z " fill="#746239" transform="translate(40,101)"/>
<path d="M0 0 C2.91517292 1.07401108 4.77810176 1.77810176 7 4 C7 4.99 7 5.98 7 7 C3.17053157 5.54744301 1.87949705 3.57104439 0 0 Z " fill="#FBF2B4" transform="translate(36,84)"/>
<path d="M0 0 C1.32 0.66 2.64 1.32 4 2 C4 3.32 4 4.64 4 6 C2.02 5.34 0.04 4.68 -2 4 C-1.34 2.68 -0.68 1.36 0 0 Z " fill="#785713" transform="translate(71,70)"/>
<path d="M0 0 C0 0.66 0 1.32 0 2 C-0.66 2 -1.32 2 -2 2 C-1.67 2.99 -1.34 3.98 -1 5 C-2.98 5 -4.96 5 -7 5 C-7 4.01 -7 3.02 -7 2 C-2.25 0 -2.25 0 0 0 Z " fill="#9A8975" transform="translate(53,52)"/>
<path d="M0 0 C2.64 0 5.28 0 8 0 C8 0.33 8 0.66 8 1 C6.02 1 4.04 1 2 1 C2 2.65 2 4.3 2 6 C1.01 6 0.02 6 -1 6 C-1.33 5.34 -1.66 4.68 -2 4 C-1.0625 1.875 -1.0625 1.875 0 0 Z " fill="#7A5E36" transform="translate(77,70)"/>
<path d="M0 0 C0 3 0 3 0 3 Z M-2 3 C-2 3.99 -2 4.98 -2 6 C-4.375 7.75 -4.375 7.75 -7 9 C-7.66 8.67 -8.32 8.34 -9 8 C-4.25 4.125 -4.25 4.125 -2 3 Z " fill="#716E60" transform="translate(91,67)"/>
<path d="M0 0 C4.29 0.33 8.58 0.66 13 1 C13 1.99 13 2.98 13 4 C12.01 4 11.02 4 10 4 C10 3.34 10 2.68 10 2 C6.7 2 3.4 2 0 2 C0 1.34 0 0.68 0 0 Z " fill="#9B864F" transform="translate(49,65)"/>
<path d="M0 0 C1.98 0 3.96 0 6 0 C5.01 0.66 4.02 1.32 3 2 C3 2.66 3 3.32 3 4 C2.34 4 1.68 4 1 4 C1 6.31 1 8.62 1 11 C0.67 11 0.34 11 0 11 C0 7.37 0 3.74 0 0 Z " fill="#524D3D" transform="translate(92,52)"/>
<path d="M0 0 C1.32 0 2.64 0 4 0 C4.33 0.99 4.66 1.98 5 3 C4.67 3.66 4.34 4.32 4 5 C2.68 5 1.36 5 0 5 C0 3.35 0 1.7 0 0 Z " fill="#F5EDC8" transform="translate(99,4)"/>
<path d="M0 0 C2 0 2 0 3.625 1.3125 C5 3 5 3 5 6 C5.66 6.33 6.32 6.66 7 7 C6.34 7.66 5.68 8.32 5 9 C4.16094435 7.87926138 3.32892169 6.75325453 2.5 5.625 C2.0359375 4.99851562 1.571875 4.37203125 1.09375 3.7265625 C0 2 0 2 0 0 Z " fill="#6C4D0B" transform="translate(83,55)"/>
<path d="M0 0 C1.98 0 3.96 0 6 0 C3 2 3 2 1 2 C1.33 2.99 1.66 3.98 2 5 C1.01 5.33 0.02 5.66 -1 6 C-1 5.34 -1 4.68 -1 4 C-1.66 3.67 -2.32 3.34 -3 3 C-2.01 2.67 -1.02 2.34 0 2 C0 1.34 0 0.68 0 0 Z " fill="#B6985D" transform="translate(66,45)"/>
<path d="M0 0 C1.32 0 2.64 0 4 0 C3.67 1.32 3.34 2.64 3 4 C1.35 4 -0.3 4 -2 4 C-2.33 3.34 -2.66 2.68 -3 2 C-2.01 2 -1.02 2 0 2 C0 1.34 0 0.68 0 0 Z " fill="#C4AD49" transform="translate(108,30)"/>
<path d="M0 0 C2.97 0.495 2.97 0.495 6 1 C6.33 2.65 6.66 4.3 7 6 C6.01 5.67 5.02 5.34 4 5 C3.67 4.34 3.34 3.68 3 3 C2.01 2.67 1.02 2.34 0 2 C0 1.34 0 0.68 0 0 Z " fill="#856731" transform="translate(75,45)"/>
<path d="M0 0 C1.32 0.33 2.64 0.66 4 1 C4 2.65 4 4.3 4 6 C3.01 6 2.02 6 1 6 C0.67 4.02 0.34 2.04 0 0 Z " fill="#692F0D" transform="translate(74,46)"/>
<path d="M0 0 C2.49361571 1.20381448 4.68143083 2.45428722 7 4 C7 4.66 7 5.32 7 6 C4.03824877 5.38722388 2.61941217 4.74627478 0 3 C0 2.01 0 1.02 0 0 Z " fill="#F3E8AE" transform="translate(88,24)"/>
<path d="M0 0 C0.66 0 1.32 0 2 0 C1.67 1.98 1.34 3.96 1 6 C1.66 6.33 2.32 6.66 3 7 C2.67 8.32 2.34 9.64 2 11 C2 10.01 2 9.02 2 8 C1.01 8 0.02 8 -1 8 C-1.04241723 5.66705225 -1.04092937 3.33297433 -1 1 C-0.67 0.67 -0.34 0.34 0 0 Z " fill="#453D3A" transform="translate(120,24)"/>
<path d="M0 0 C0.99 1.32 1.98 2.64 3 4 C2.34 4 1.68 4 1 4 C0.67 4.66 0.34 5.32 0 6 C-0.99 6 -1.98 6 -3 6 C-2.625 3.5625 -2.625 3.5625 -2 1 C-1.34 0.67 -0.68 0.34 0 0 Z " fill="#76624F" transform="translate(77,22)"/>
<path d="M0 0 C0.66 0 1.32 0 2 0 C2 1.98 2 3.96 2 6 C0.68 6 -0.64 6 -2 6 C-1.34 4.02 -0.68 2.04 0 0 Z " fill="#A47E42" transform="translate(89,12)"/>
<path d="M0 0 C-1.36983503 3.16115776 -1.9890638 3.9927092 -5 6 C-5.33 5.01 -5.66 4.02 -6 3 C-3.375 0 -3.375 0 0 0 Z " fill="#302E23" transform="translate(54,114)"/>
<path d="M0 0 C4.875 1.75 4.875 1.75 6 4 C5.01 4 4.02 4 3 4 C2.67 4.66 2.34 5.32 2 6 C2 5.34 2 4.68 2 4 C1.34 4 0.68 4 0 4 C0 2.68 0 1.36 0 0 Z " fill="#B59F5C" transform="translate(25,85)"/>
<path d="M0 0 C2.64 0.66 5.28 1.32 8 2 C6.68 2.33 5.36 2.66 4 3 C4 3.66 4 4.32 4 5 C3.01 4.67 2.02 4.34 1 4 C0.67 2.68 0.34 1.36 0 0 Z " fill="#AE9B6C" transform="translate(103,42)"/>
<path d="M0 0 C0 0.99 0 1.98 0 3 C-2.31 3.33 -4.62 3.66 -7 4 C-7 3.34 -7 2.68 -7 2 C-2.25 0 -2.25 0 0 0 Z " fill="#613F1F" transform="translate(102,40)"/>
<path d="M0 0 C0.66 0 1.32 0 2 0 C2.33 0.66 2.66 1.32 3 2 C5.02463255 2.65213292 5.02463255 2.65213292 7 3 C7 3.66 7 4.32 7 5 C4.125 4.6875 4.125 4.6875 1 4 C0.34 3.01 -0.32 2.02 -1 1 C-0.67 0.67 -0.34 0.34 0 0 Z " fill="#FAF754" transform="translate(97,25)"/>
<path d="M0 0 C0.99 0 1.98 0 3 0 C3.33 1.65 3.66 3.3 4 5 C2.35 4.67 0.7 4.34 -1 4 C-0.67 2.68 -0.34 1.36 0 0 Z " fill="#FEEA12" transform="translate(101,22)"/>
<path d="M0 0 C1.98 0.495 1.98 0.495 4 1 C4 1.66 4 2.32 4 3 C4.66 3.33 5.32 3.66 6 4 C2 4 2 4 -1 3 C-0.67 2.01 -0.34 1.02 0 0 Z " fill="#EED83C" transform="translate(92,21)"/>
<path d="M0 0 C0.33 0.66 0.66 1.32 1 2 C0.67 2.99 0.34 3.98 0 5 C0.66 5 1.32 5 2 5 C2 5.66 2 6.32 2 7 C-0.64 6.67 -3.28 6.34 -6 6 C-6 5.67 -6 5.34 -6 5 C-4.35 5 -2.7 5 -1 5 C-0.67 3.35 -0.34 1.7 0 0 Z " fill="#7A5826" transform="translate(86,16)"/>
<path d="M0 0 C0.33 1.32 0.66 2.64 1 4 C-1.97 4 -4.94 4 -8 4 C-5.33333333 2.66666667 -2.66666667 1.33333333 0 0 Z " fill="#2C2515" transform="translate(76,83)"/>
<path d="M0 0 C0.99 0.66 1.98 1.32 3 2 C2.67 2.99 2.34 3.98 2 5 C0.68 5 -0.64 5 -2 5 C-2 3.68 -2 2.36 -2 1 C-1.34 0.67 -0.68 0.34 0 0 Z " fill="#64573E" transform="translate(73,80)"/>
<path d="M0 0 C1 3 1 3 -0.4375 6.1875 C-1.2109375 7.5796875 -1.2109375 7.5796875 -2 9 C-3.21185923 5.36442231 -2.59260392 4.36216382 -1 1 C-0.67 0.67 -0.34 0.34 0 0 Z " fill="#817056" transform="translate(77,74)"/>
<path d="M0 0 C0.33 0.66 0.66 1.32 1 2 C0.34 2 -0.32 2 -1 2 C-1 2.99 -1 3.98 -1 5 C-2.65 4.67 -4.3 4.34 -6 4 C-4.60804085 1.2160817 -2.84424221 1.02101003 0 0 Z " fill="#5D4A20" transform="translate(52,74)"/>
<path d="M0 0 C1.32 0 2.64 0 4 0 C4 2.31 4 4.62 4 7 C3.34 6.67 2.68 6.34 2 6 C2 4.68 2 3.36 2 2 C1.34 2 0.68 2 0 2 C0 1.34 0 0.68 0 0 Z " fill="#917D20" transform="translate(56,69)"/>
<path d="M0 0 C4.6302521 1.46218487 4.6302521 1.46218487 6.375 4 C7 6 7 6 6 8 C2.76260721 6.3813036 1.57755229 3.15510457 0 0 Z " fill="#9E843D" transform="translate(64,62)"/>
<path d="M0 0 C0.66 0.33 1.32 0.66 2 1 C2 1.99 2 2.98 2 4 C2.66 4 3.32 4 4 4 C4 4.66 4 5.32 4 6 C2.35 5.67 0.7 5.34 -1 5 C-0.67 3.35 -0.34 1.7 0 0 Z " fill="#AFA07C" transform="translate(47,63)"/>
<path d="M0 0 C0.66 0.33 1.32 0.66 2 1 C2 2.65 2 4.3 2 6 C0.02 6.99 0.02 6.99 -2 8 C-1.125 1.125 -1.125 1.125 0 0 Z " fill="#C19D5C" transform="translate(81,57)"/>
<path d="M0 0 C0.99 0 1.98 0 3 0 C2.45276317 3.37462715 1.9451 5.08235 0 8 C0 5.36 0 2.72 0 0 Z " fill="#9A8B76" transform="translate(45,59)"/>
<path d="M0 0 C0.33 0.66 0.66 1.32 1 2 C3.02463255 2.65213292 3.02463255 2.65213292 5 3 C3.35 3.33 1.7 3.66 0 4 C0 5.65 0 7.3 0 9 C-0.33 9 -0.66 9 -1 9 C-1.09765625 2.84765625 -1.09765625 2.84765625 -1 1 C-0.67 0.67 -0.34 0.34 0 0 Z " fill="#847564" transform="translate(45,55)"/>
<path d="M0 0 C0.66 0 1.32 0 2 0 C1.67 1.65 1.34 3.3 1 5 C-1.97 4.505 -1.97 4.505 -5 4 C-4.0409375 3.8453125 -4.0409375 3.8453125 -3.0625 3.6875 C-2.381875 3.460625 -1.70125 3.23375 -1 3 C-0.67 2.01 -0.34 1.02 0 0 Z " fill="#E5D336" transform="translate(105,27)"/>
<path d="M0 0 C1.32 0.33 2.64 0.66 4 1 C0.375 4 0.375 4 -3 4 C-3.33 4.66 -3.66 5.32 -4 6 C-4 5.34 -4 4.68 -4 4 C-4.66 3.67 -5.32 3.34 -6 3 C-4.35 3 -2.7 3 -1 3 C-0.67 2.01 -0.34 1.02 0 0 Z " fill="#CB9411" transform="translate(100,18)"/>
</svg>
